<svg width="28" height="28" viewBox="0 0 28 28" fill="none" xmlns="http://www.w3.org/2000/svg">
<circle cx="14" cy="14" r="14" fill="#8572FF"/>
<path d="M8.0854 20.1217C8.35598 20.1217 8.57533 19.9721 8.57533 19.7876C8.57533 19.603 8.35598 19.4534 8.0854 19.4534C7.81481 19.4534 7.59546 19.603 7.59546 19.7876C7.59546 19.9721 7.81481 20.1217 8.0854 20.1217Z" fill="white"/>
<path d="M22.4375 18.1257L22.2536 18.0177C22.2395 18.0095 20.8341 17.1756 20.4848 16.1637L20.4069 15.9395L20.2629 16.1277C20.2584 16.1336 20.0587 16.3805 19.4998 16.6702C19.0861 14.3153 17.6788 11.5039 15.8293 10.3052C16.358 10.348 16.8884 10.3041 17.4003 10.1179C17.7086 10.006 17.5755 9.50366 17.2645 9.61728C16.8448 9.77 16.4244 9.81162 16.0047 9.79025C17.035 8.84609 17.8438 7.39906 17.8438 6.341C17.8438 6.08675 17.8438 5.61341 17.467 5.61341C17.3157 5.61341 17.1933 5.70791 17.0243 5.83841C16.765 6.03837 16.3735 6.341 15.7983 6.341C15.5792 6.341 15.1782 6.10981 14.8558 5.92419C14.4663 5.70003 14.2174 5.5625 14.0082 5.5625C13.6617 5.5625 13.1523 5.84262 12.7029 6.08984C12.5201 6.19025 12.27 6.32806 12.2183 6.34128C11.5669 6.34128 11.1886 6.04091 10.9377 5.84206C10.7915 5.72562 10.6855 5.64125 10.544 5.64125C10.1733 5.64125 10.1733 6.08591 10.1733 6.60087C10.1733 7.59481 10.9304 8.90684 11.9218 9.78856C11.2972 9.83328 10.6812 10.022 10.2484 10.4413C10.0093 10.6725 10.3716 11.0393 10.6098 10.8087C10.9695 10.4599 11.4412 10.3106 11.9457 10.2816C11.9601 10.3331 11.9775 10.3837 11.9989 10.4335C9.88503 11.9525 8.38344 15.5595 8.38344 17.9946C8.38344 18.2348 8.402 18.4522 8.43069 18.6569C7.88562 18.4148 7.68678 18.2024 7.68284 18.1977L7.53772 18.0303L7.46628 18.2413C7.15044 19.1705 5.77737 19.9766 5.76359 19.9847L5.5625 20.1014L5.76697 20.212C5.83869 20.2508 5.90984 20.2848 5.98156 20.3217L5.85219 20.4114L5.92053 21.2664L11.2792 22.4375L13.3109 21.1378C13.516 21.139 13.7235 21.1395 13.9347 21.1395L16.3096 22.4375L21.6784 20.75V19.8475L21.5364 19.7622C21.6073 19.7172 21.6781 19.6714 21.7487 19.6242L21.9369 19.4984L21.8955 19.4782L22.1349 19.4127L22.1754 18.4744L22.037 18.3763C22.1107 18.3321 22.1841 18.2871 22.2578 18.2404L22.4375 18.1257V18.1257ZM10.6849 6.60087C10.6849 6.476 10.6866 6.37869 10.6891 6.30303C10.7322 6.33678 10.7822 6.37363 10.8357 6.41159C10.9996 6.80422 11.3098 7.36953 11.8358 7.72559C12.4748 8.15872 12.3898 7.66091 12.7307 7.20641C13.0716 6.75219 13.3022 6.51425 13.8732 7.68256C14.1221 8.19191 14.5369 6.7685 14.9312 6.56066C15.0356 6.61747 15.1396 6.67034 15.2417 6.71534C15.9488 7.86509 16.2764 7.5065 16.9045 6.55081C17.0772 6.44956 17.2189 6.341 17.3317 6.25409C17.3323 6.28025 17.3328 6.30922 17.3328 6.34156C17.3328 7.24438 16.5951 8.53925 15.6917 9.38384C15.6491 9.27545 15.588 9.17525 15.5112 9.08769C15.1464 8.67453 14.5763 9.13269 14.306 9.43334C13.8265 9.27922 13.0452 8.85481 12.5361 9.09781C12.4093 9.15663 12.2929 9.23555 12.1913 9.33153C11.3588 8.57272 10.6849 7.47725 10.6849 6.60087V6.60087ZM15.2423 9.68731C15.1162 9.66057 14.9908 9.63056 14.8663 9.59731C15.0232 9.46203 15.1672 9.41478 15.2277 9.61588C15.2341 9.63781 15.2381 9.66284 15.2423 9.68731V9.68731ZM13.1048 9.86197C13.0117 9.84425 12.9161 9.82822 12.8176 9.81556C12.743 9.76878 12.6699 9.71953 12.5985 9.66791C12.8556 9.4955 13.2988 9.58719 13.7224 9.73091C13.5134 9.752 13.3073 9.79756 13.1048 9.86197V9.86197ZM13.2325 10.6045C13.075 10.6438 12.9034 10.6281 12.7552 10.569C12.8154 10.5373 12.8761 10.5097 12.9369 10.4818C13.0353 10.5294 13.1337 10.569 13.2325 10.6045ZM8.03019 20.8566C7.35937 20.6623 6.70847 20.405 6.08619 20.0879C6.46784 19.8371 7.29922 19.2304 7.63728 18.5014C7.86903 18.6834 8.40397 19.0152 9.44572 19.2701C9.428 19.2987 9.40634 19.3294 9.38553 19.3595C8.49622 19.1266 7.99053 18.8322 7.98238 18.8271L7.85975 18.754L7.80097 18.8853C7.72362 19.0574 7.54222 19.0833 7.44125 19.0833C7.41313 19.0833 7.39428 19.0813 7.39175 19.0811L7.29134 19.0664L7.25478 19.1626C7.17997 19.3589 6.87284 19.6154 6.76034 19.6978L6.57247 19.8357L6.78734 19.9237C6.86722 19.9563 6.88887 19.9864 6.89 19.9943C6.89281 20.0137 6.85878 20.0649 6.8225 20.0944L6.65881 20.2263L6.84922 20.3143C7.23931 20.4943 7.68116 20.6434 8.123 20.7663C8.08784 20.8009 8.05747 20.8304 8.03019 20.8566ZM10.2982 19.8087C10.6914 19.8638 11.127 19.8987 11.6029 19.8987H11.6032C11.7022 19.8987 11.8026 19.897 11.905 19.8939C11.9118 19.9151 11.9215 19.9353 11.9339 19.9538C11.959 19.9917 11.9927 20.0232 12.0355 20.0477L11.3177 20.6611C11.304 20.6605 11.2903 20.6603 11.2767 20.6603C10.9569 20.6603 10.7184 20.7778 10.6039 20.9871C10.1702 20.9318 9.73852 20.8617 9.30959 20.777C9.65439 20.4702 9.9843 20.147 10.2982 19.8087V19.8087ZM7.10628 20.1453C7.13441 20.0922 7.15269 20.0277 7.14284 19.9574C7.13349 19.894 7.10308 19.8356 7.0565 19.7915C7.18278 19.6832 7.35688 19.5162 7.4525 19.3432C7.66991 19.3401 7.84934 19.2577 7.96241 19.112C8.15281 19.2116 8.58172 19.4127 9.21537 19.587C8.95634 19.9119 8.60731 20.2803 8.33591 20.5543C7.91291 20.4423 7.48681 20.3073 7.10628 20.1453V20.1453ZM11.1144 21.3291L11.0567 21.3294C10.8146 21.3294 10.0122 21.3097 8.95213 21.0889C8.98925 21.0574 9.02778 21.0251 9.0635 20.9941C9.92356 21.1738 10.6171 21.2509 10.6692 21.2568L10.7721 21.2678L10.8039 21.1679C10.8733 20.9525 11.1296 20.9207 11.2764 20.9207C11.3166 20.9207 11.3433 20.9233 11.3464 20.9235L11.401 20.9294L12.6477 19.8641L12.3145 19.8531C12.2031 19.8492 12.1561 19.8241 12.1446 19.807L12.2152 19.6222L12.02 19.6303C11.8777 19.6365 11.7387 19.6396 11.6029 19.6396H11.6026C11.21 19.6396 10.8458 19.6137 10.5091 19.573L10.5873 19.4807C11.2668 19.5716 12.0805 19.6275 13.0629 19.6205C12.8283 19.9496 12.2433 20.649 11.1144 21.3291V21.3291ZM13.9336 20.1071V20.6203C13.7736 20.6203 13.6178 20.6198 13.4653 20.6187L13.4195 20.041L13.0387 20.0719C13.2952 19.7687 13.4046 19.5665 13.4144 19.5482L13.5177 19.353L13.2997 19.357C11.2134 19.3952 9.85269 19.1466 8.99375 18.8704C8.93103 18.6167 8.89475 18.3298 8.89475 17.9949C8.89475 15.7103 10.3547 12.2571 12.2931 10.8576C12.6365 11.1897 13.1574 11.3352 13.6524 11.012C13.7609 10.9411 13.8554 10.8483 13.944 10.7496C13.9651 10.7502 13.9868 10.7549 14.0082 10.7549C14.079 10.7549 14.151 10.749 14.2227 10.74C14.3136 10.7763 14.4025 10.8129 14.4849 10.8492C14.8795 11.023 15.2164 10.915 15.4465 10.6753C17.222 11.7497 18.6446 14.5917 19.0189 16.889C18.2072 17.2136 16.9197 17.5303 14.9436 17.5859C15.3334 17.3632 15.6259 16.9886 15.5207 16.4964C15.4102 15.9761 14.9754 15.8298 14.5251 15.8059C14.524 15.5615 14.524 15.3177 14.5257 15.0733C14.6637 15.1343 14.7962 15.2046 14.9166 15.2797C15.1292 15.4133 15.3216 15.0671 15.1104 14.9335C14.9272 14.8183 14.7318 14.7241 14.5276 14.6525C14.5304 14.3696 14.5318 14.0872 14.5318 13.8048C14.5321 13.5461 14.1477 13.5461 14.1477 13.8048C14.1477 14.0532 14.146 14.3012 14.1437 14.549C13.9391 14.5133 13.7301 14.5098 13.5244 14.5386C13.491 14.3524 13.4504 14.1676 13.4029 13.9845C13.3393 13.7353 12.9681 13.8408 13.0325 14.0908C13.0797 14.2706 13.1183 14.4494 13.1501 14.6308C13.1338 14.637 13.116 14.6401 13.1 14.6474C12.5791 14.8536 12.2613 15.3792 12.6424 15.8695C12.8199 16.0978 13.0519 16.1901 13.3059 16.2207C13.3197 16.5591 13.3284 16.8977 13.3382 17.2358C13.1681 17.1253 13.0131 16.9835 12.8728 16.8336C12.6989 16.6502 12.4275 16.9334 12.6011 17.1165C12.837 17.3677 13.0848 17.5575 13.3534 17.679C13.3655 17.9679 13.3827 18.2576 13.4108 18.545C13.4355 18.8001 13.8203 18.8015 13.7952 18.545C13.7715 18.2964 13.754 18.0472 13.7427 17.7977C13.8889 17.823 14.0425 17.8295 14.2056 17.814C14.2239 18.0801 14.2452 18.3462 14.2756 18.6122C14.2931 18.7647 14.4388 18.8246 14.5462 18.7936L14.5223 19.346C14.353 19.3612 14.1803 19.3752 14.0003 19.3871L13.786 19.4011L13.9002 19.5856C13.9117 19.6042 14.0413 19.8092 14.3307 20.1076H13.9336V20.1071ZM20.9334 18.2559C20.5798 18.4221 20.1327 18.5745 19.677 18.7076C19.3969 18.4182 19.0386 18.032 18.7711 17.6894C19.3671 17.5089 19.7007 17.3227 19.8511 17.2223C19.9701 17.3272 20.1276 17.3817 20.3141 17.3815C20.3759 17.3815 20.4308 17.3756 20.473 17.3688C20.608 17.5438 20.8257 17.7457 20.9618 17.8663C20.8974 17.9324 20.8662 18.0056 20.8687 18.0846C20.8709 18.1521 20.8979 18.2095 20.9334 18.2559V18.2559ZM18.921 19.1801C18.9784 19.2307 19.0377 19.2824 19.0982 19.3347C17.958 19.6371 17.1095 19.67 16.9247 19.6731C15.744 18.9528 15.132 18.1906 14.8961 17.8475C15.8841 17.8228 16.7008 17.7333 17.382 17.6101C17.4097 17.6441 17.4378 17.6779 17.4661 17.7114C16.9186 17.7966 16.3668 17.8514 15.8132 17.8753L15.5862 17.8849L15.7111 18.0759C15.7108 18.0762 15.6855 18.1234 15.5179 18.156L15.2454 18.2092L16.5853 19.294L16.6477 19.2771C16.6491 19.2768 16.7672 19.245 16.9101 19.245C17.1163 19.245 17.2572 19.3077 17.328 19.4304L17.373 19.508L17.4605 19.4925C17.9504 19.4032 18.4375 19.299 18.921 19.1801V19.1801ZM14.9563 18.3535L14.6362 18.336C14.6213 18.1763 14.6064 18.0165 14.5951 17.8568C14.6514 17.9502 14.7667 18.1257 14.9563 18.3535ZM14.5603 17.3238C14.5418 16.9452 14.5306 16.5663 14.5268 16.1873C14.5729 16.189 14.6185 16.1932 14.6618 16.1994C15.159 16.2747 15.289 16.8277 14.9008 17.1387C14.7996 17.2189 14.6829 17.2777 14.5603 17.3238ZM17.4962 19.2228C17.3702 19.0673 17.1697 18.9857 16.9104 18.9857C16.8021 18.9857 16.7067 19.0003 16.6466 19.0122L15.8042 18.3296C15.8743 18.2893 15.9215 18.2384 15.9474 18.176C15.9537 18.1605 15.9586 18.1444 15.962 18.1279C16.6297 18.0913 17.1922 18.0247 17.6678 17.9431C17.8984 18.2005 18.2373 18.5554 18.6868 18.968C18.1347 19.0993 17.6742 19.1893 17.4962 19.2228V19.2228ZM14.142 16.1974C14.1474 16.6049 14.1575 17.0136 14.1792 17.4208C14.1429 17.4265 14.1072 17.4335 14.0714 17.4372C13.9505 17.4509 13.8357 17.4408 13.7266 17.4133C13.7128 17.0195 13.7038 16.6249 13.6889 16.2309C13.8402 16.2238 13.9935 16.2089 14.142 16.1974V16.1974ZM13.6695 15.8416C13.652 15.5326 13.6229 15.2243 13.5823 14.9174C13.7688 14.8918 13.9583 14.9014 14.1412 14.9458C14.1392 15.2334 14.1387 15.5209 14.1398 15.8084C14.0163 15.8152 13.899 15.827 13.7958 15.8363C13.7538 15.8396 13.7117 15.8413 13.6695 15.8416V15.8416ZM13.2837 15.7924C13.2597 15.7859 13.2361 15.7809 13.2117 15.7727C13.0991 15.7346 12.9972 15.6703 12.9144 15.5851C12.6742 15.361 13.0038 15.141 13.2117 15.0367C13.2443 15.287 13.2668 15.5396 13.2837 15.7924V15.7924ZM16.3878 21.2672C15.1669 20.6434 14.5119 19.9501 14.2517 19.6289C14.4388 19.6149 14.6157 19.598 14.7909 19.5803L16.7928 20.8797L21.1831 19.6737C18.9191 21.0383 16.6823 21.2461 16.3878 21.2672V21.2672ZM20.0137 19.0482C19.9777 19.0122 19.9347 18.9694 19.8837 18.9179C20.3832 18.7666 20.8664 18.5911 21.2267 18.3982L21.4458 18.2803L21.2236 18.1673C21.1738 18.1417 21.1252 18.0947 21.1243 18.077C21.1249 18.0702 21.1446 18.0342 21.2298 17.9853L21.3924 17.8919L21.2478 17.7716C21.2433 17.7679 20.7925 17.3936 20.6341 17.1525L20.5818 17.0738L20.4921 17.0999C20.4913 17.0999 20.4142 17.1222 20.3141 17.1222C20.1594 17.1224 20.0435 17.0718 19.9692 16.9723L19.8871 16.8634L19.7842 16.952C19.7788 16.9565 19.4602 17.2178 18.6055 17.4647C18.5773 17.4242 18.5502 17.3829 18.5242 17.341C19.5606 17.0268 20.0902 16.6466 20.3197 16.4384C20.6881 17.2355 21.5653 17.8776 21.9462 18.1293C21.3344 18.4995 20.687 18.8073 20.0137 19.0482" fill="white"/>
<path d="M17.4819 18.2517C17.2015 18.1754 16.8851 18.2275 16.7743 18.3667C16.6643 18.5065 16.8032 18.6825 17.0834 18.7593C17.364 18.8355 17.6802 18.7832 17.791 18.6437C17.901 18.5039 17.7626 18.3284 17.4819 18.2517Z" fill="white"/>
</svg>
