<svg width="22" height="27" viewBox="0 0 22 27" fill="none" xmlns="http://www.w3.org/2000/svg">
<g clip-path="url(#clip0_25_105)">
<path d="M15.3704 23.7878C15.3704 24.3935 14.9642 24.8852 14.4644 24.8852H2.4079C1.90812 24.8852 1.50101 24.3935 1.50101 23.7878V2.83334C1.50101 2.22858 1.90812 1.73689 2.4079 1.73689L10.7075 1.72645V5.43788C10.7075 6.52301 11.4346 7.40369 12.3314 7.40369L15.3366 7.39325L15.3391 8.57678C15.8724 8.85522 16.3671 9.23593 16.8051 9.70846V6.70583L11.244 0H2.4079C1.11708 0 0.0664062 1.27132 0.0664062 2.83334V23.7878C0.0664062 25.3498 1.11708 26.6212 2.4079 26.6212H14.4644C15.6128 26.6212 16.5667 25.6118 16.7634 24.2881L15.3668 22.0561L15.3704 23.7878Z" fill="white"/>
<path d="M21.4067 22.798L17.9839 18.5375C17.6969 19.0553 17.3539 19.5399 16.9454 19.9646C16.5362 20.391 16.0904 20.7277 15.6244 20.9914L18.588 25.728C18.8972 26.2231 19.3632 26.5424 19.8738 26.6085C19.9396 26.6168 20.0051 26.6212 20.0705 26.6212C20.5146 26.6212 20.9461 26.4301 21.2858 26.0769C21.6756 25.6723 21.9086 25.0901 21.9316 24.4688C21.9561 23.8484 21.7648 23.2436 21.4067 22.798Z" fill="white"/>
<path d="M13.1645 8.9187C12.0718 8.9187 10.974 9.37257 10.082 10.2993C8.10362 12.3582 7.87556 15.9825 9.5771 18.3791C10.5127 19.6953 11.8384 20.371 13.1714 20.371C14.2642 20.371 15.3616 19.9172 16.2536 18.9899C18.2335 16.9328 18.4599 13.3076 16.7599 10.9118C15.8246 9.59486 14.4982 8.9187 13.1645 8.9187ZM15.2159 17.5281C14.6233 18.1433 13.8948 18.4448 13.1699 18.4448C12.2854 18.4448 11.4062 17.9963 10.7853 17.1226C9.65622 15.5319 9.80721 13.1275 11.1204 11.7612C11.7126 11.1465 12.4415 10.8454 13.1664 10.8454C14.0516 10.8454 14.9311 11.2935 15.5517 12.1676C16.68 13.7567 16.529 16.1628 15.2159 17.5281Z" fill="white"/>
<path d="M12.1581 12.4443C11.9991 12.4026 11.8301 12.4365 11.6964 12.5748C10.7529 13.5556 10.6457 15.2829 11.4555 16.4246C11.5698 16.5847 11.7339 16.6501 11.8964 16.6353C12.0049 16.6265 12.1157 16.5865 12.2048 16.4925C12.4277 16.2618 12.4522 15.8563 12.2623 15.5874C11.8323 14.9827 11.8891 14.0681 12.3896 13.5495C12.6118 13.3171 12.637 12.9115 12.4471 12.6436C12.3695 12.533 12.2652 12.4748 12.1581 12.4443Z" fill="white"/>
</g>
<defs>
<clipPath id="clip0_25_105">
<rect width="22" height="26.6212" fill="white"/>
</clipPath>
</defs>
</svg>
