<svg width="22" height="32" viewBox="0 0 22 32" fill="none" xmlns="http://www.w3.org/2000/svg">
<path d="M21.3169 22.5123C19.6537 20.8112 18.7 18.3248 18.7 15.6906V11.9796C18.7 7.29557 15.8246 3.41817 12.1 2.76861V1.33106C12.1 0.594986 11.6072 0 11 0C10.3928 0 9.90001 0.594986 9.90001 1.33106V2.76861C6.17431 3.41817 3.3 7.29557 3.3 11.9796V15.6906C3.3 18.3248 2.3463 20.8112 0.673201 22.5229C0.2453 22.9662 0 23.6104 0 24.2919C0 25.5764 0.863501 26.6213 1.925 26.6213H20.075C21.1365 26.6213 22 25.5764 22 24.2919C22 23.6104 21.7547 22.9662 21.3169 22.5123Z" fill="white"/>
<path d="M11 31.9455C12.9921 31.9455 14.6586 30.2271 15.0414 27.9524H6.9586C7.3414 30.2271 9.0079 31.9455 11 31.9455Z" fill="white"/>
</svg>
