<svg width="64" height="64" viewBox="0 0 64 64" fill="none" xmlns="http://www.w3.org/2000/svg">
<g filter="url(#filter0_d_159_251)">
<circle cx="32" cy="28" r="18" fill="#8572FF"/>
<circle cx="32" cy="28" r="17.5" stroke="white"/>
</g>
<path d="M28.267 30.6801C28.083 30.6801 27.959 30.6981 27.895 30.7161V31.8941C27.971 31.9121 28.066 31.9171 28.197 31.9171C28.676 31.9171 28.971 31.6751 28.971 31.2661C28.971 30.9001 28.717 30.6801 28.267 30.6801V30.6801ZM31.754 30.6921C31.554 30.6921 31.424 30.7101 31.347 30.7281V33.3381C31.424 33.3561 31.548 33.3561 31.66 33.3561C32.477 33.3621 33.009 32.9121 33.009 31.9601C33.015 31.1301 32.53 30.6921 31.754 30.6921V30.6921Z" fill="white"/>
<path d="M34 18H26C25.4696 18 24.9609 18.2107 24.5858 18.5858C24.2107 18.9609 24 19.4696 24 20V36C24 36.5304 24.2107 37.0391 24.5858 37.4142C24.9609 37.7893 25.4696 38 26 38H38C38.5304 38 39.0391 37.7893 39.4142 37.4142C39.7893 37.0391 40 36.5304 40 36V24L34 18ZM29.498 32.19C29.189 32.48 28.733 32.61 28.202 32.61C28.099 32.6111 27.9961 32.6051 27.894 32.592V34.018H27V30.082C27.4035 30.0218 27.8111 29.9944 28.219 30C28.776 30 29.172 30.106 29.439 30.319C29.693 30.521 29.865 30.852 29.865 31.242C29.864 31.634 29.734 31.965 29.498 32.19V32.19ZM33.305 33.545C32.885 33.894 32.246 34.06 31.465 34.06C30.997 34.06 30.666 34.03 30.441 34V30.083C30.8446 30.0241 31.2521 29.9963 31.66 30C32.417 30 32.909 30.136 33.293 30.426C33.708 30.734 33.968 31.225 33.968 31.93C33.968 32.693 33.689 33.22 33.305 33.545V33.545ZM37 30.77H35.468V31.681H36.9V32.415H35.468V34.019H34.562V30.03H37V30.77ZM34 25H33V20L38 25H34Z" fill="white"/>
<defs>
<filter id="filter0_d_159_251" x="0" y="0" width="64" height="64" filterUnits="userSpaceOnUse" color-interpolation-filters="sRGB">
<feFlood flood-opacity="0" result="BackgroundImageFix"/>
<feColorMatrix in="SourceAlpha" type="matrix" values="0 0 0 0 0 0 0 0 0 0 0 0 0 0 0 0 0 0 127 0" result="hardAlpha"/>
<feOffset dy="4"/>
<feGaussianBlur stdDeviation="7"/>
<feComposite in2="hardAlpha" operator="out"/>
<feColorMatrix type="matrix" values="0 0 0 0 0 0 0 0 0 0 0 0 0 0 0 0 0 0 0.25 0"/>
<feBlend mode="normal" in2="BackgroundImageFix" result="effect1_dropShadow_159_251"/>
<feBlend mode="normal" in="SourceGraphic" in2="effect1_dropShadow_159_251" result="shape"/>
</filter>
</defs>
</svg>
