<svg width="20" height="20" viewBox="0 0 20 20" fill="none" xmlns="http://www.w3.org/2000/svg">
<rect width="20" height="20" rx="10" fill="#DCF7FF"/>
<path d="M7.01992 12.8125C7.04336 12.8125 7.0668 12.8102 7.09023 12.8066L9.06133 12.4609C9.08477 12.4562 9.10703 12.4457 9.12344 12.4281L14.091 7.46055C14.1019 7.44971 14.1105 7.43683 14.1164 7.42265C14.1223 7.40847 14.1253 7.39328 14.1253 7.37793C14.1253 7.36258 14.1223 7.34738 14.1164 7.33321C14.1105 7.31903 14.1019 7.30615 14.091 7.29531L12.1434 5.34648C12.1211 5.32422 12.0918 5.3125 12.0602 5.3125C12.0285 5.3125 11.9992 5.32422 11.977 5.34648L7.00937 10.3141C6.9918 10.3316 6.98125 10.3527 6.97656 10.3762L6.63086 12.3473C6.61946 12.41 6.62353 12.4747 6.64273 12.5355C6.66192 12.5964 6.69566 12.6516 6.74102 12.6965C6.81836 12.7715 6.91563 12.8125 7.01992 12.8125V12.8125ZM7.80977 10.7687L12.0602 6.51953L12.9191 7.37852L8.66875 11.6277L7.62695 11.8117L7.80977 10.7687V10.7687ZM14.3125 13.7969H5.6875C5.48008 13.7969 5.3125 13.9645 5.3125 14.1719V14.5938C5.3125 14.6453 5.35469 14.6875 5.40625 14.6875H14.5938C14.6453 14.6875 14.6875 14.6453 14.6875 14.5938V14.1719C14.6875 13.9645 14.5199 13.7969 14.3125 13.7969Z" fill="#0A7293"/>
</svg>
