<svg width="28" height="28" viewBox="0 0 28 28" fill="none" xmlns="http://www.w3.org/2000/svg">
<circle cx="14" cy="14" r="14" fill="#8572FF"/>
<path d="M7.32491 6C6.97353 6 6.63653 6.13959 6.38806 6.38806C6.13959 6.63653 6 6.97353 6 7.32491V13.401C6.00008 13.7523 6.13971 14.0893 6.3882 14.3377L15.6626 23.6121C15.9111 23.8605 16.248 24 16.5993 24C16.9506 24 17.2876 23.8605 17.536 23.6121L23.6121 17.536C23.8605 17.2876 24 16.9506 24 16.5993C24 16.248 23.8605 15.9111 23.6121 15.6626L14.3377 6.3882C14.0893 6.13971 13.7523 6.00008 13.401 6H7.32491ZM12.6246 10.6372C12.6246 11.1643 12.4152 11.6698 12.0425 12.0425C11.6698 12.4152 11.1643 12.6246 10.6372 12.6246C10.1101 12.6246 9.60462 12.4152 9.23192 12.0425C8.85921 11.6698 8.64983 11.1643 8.64983 10.6372C8.64983 10.1101 8.85921 9.60462 9.23192 9.23192C9.60462 8.85921 10.1101 8.64983 10.6372 8.64983C11.1643 8.64983 11.6698 8.85921 12.0425 9.23192C12.4152 9.60462 12.6246 10.1101 12.6246 10.6372V10.6372Z" fill="white"/>
</svg>
