<svg width="8" height="8" viewBox="0 0 8 8" fill="none" xmlns="http://www.w3.org/2000/svg">
<path d="M6.25 3.5C5.2835 3.5 4.5 2.7165 4.5 1.75V0.5C4.5 0.223858 4.27614 0 4 0V0C3.72386 0 3.5 0.223858 3.5 0.5V1.75C3.5 2.7165 2.7165 3.5 1.75 3.5H0.5C0.223858 3.5 0 3.72386 0 4V4C0 4.27614 0.223858 4.5 0.5 4.5H1.75C2.7165 4.5 3.5 5.2835 3.5 6.25V7.5C3.5 7.77614 3.72386 8 4 8V8C4.27614 8 4.5 7.77614 4.5 7.5V6.25C4.5 5.2835 5.2835 4.5 6.25 4.5H7.5C7.77614 4.5 8 4.27614 8 4V4C8 3.72386 7.77614 3.5 7.5 3.5H6.25Z" fill="white"/>
</svg>
