<svg width="28" height="28" viewBox="0 0 28 28" fill="none" xmlns="http://www.w3.org/2000/svg">
<circle cx="14" cy="14" r="14" fill="#8572FF"/>
<path d="M15.3332 24H12.6668C12.3135 23.9989 11.975 23.8459 11.7252 23.5745C11.4754 23.3032 11.3346 22.9355 11.3336 22.5517V17.4828C10.9803 17.4816 10.6418 17.3287 10.392 17.0573C10.1422 16.7859 10.0014 16.4182 10.0003 16.0345V11.6897C9.99545 11.4029 10.0438 11.118 10.1426 10.8521C10.2414 10.5861 10.3885 10.3445 10.5752 10.1417C10.7619 9.93891 10.9843 9.77909 11.2291 9.6718C11.474 9.5645 11.7362 9.51194 12.0002 9.51724H15.9998C16.2638 9.51194 16.526 9.5645 16.7709 9.6718C17.0157 9.77909 17.2381 9.93891 17.4248 10.1417C17.6115 10.3445 17.7586 10.5861 17.8574 10.8521C17.9562 11.118 18.0045 11.4029 17.9997 11.6897V16.0345C17.9986 16.4182 17.8578 16.7859 17.608 17.0573C17.3582 17.3287 17.0197 17.4816 16.6664 17.4828V22.5517C16.6654 22.9355 16.5246 23.3032 16.2748 23.5745C16.025 23.8459 15.6865 23.9989 15.3332 24ZM12.0002 10.9655C11.9112 10.9597 11.8222 10.9745 11.7389 11.0088C11.6556 11.0431 11.5799 11.0963 11.5169 11.1647C11.4539 11.2332 11.405 11.3153 11.3734 11.4058C11.3418 11.4963 11.3282 11.593 11.3336 11.6897V16.0345H12.6668V22.5517H15.3332V16.0345H16.6664V11.6897C16.6718 11.593 16.6582 11.4963 16.6266 11.4058C16.595 11.3153 16.5461 11.2332 16.4831 11.1647C16.4201 11.0963 16.3444 11.0431 16.2611 11.0088C16.1778 10.9745 16.0888 10.9597 15.9998 10.9655H12.0002ZM14 8.7931C13.4726 8.7931 12.9571 8.62322 12.5186 8.30495C12.0801 7.98667 11.7383 7.53429 11.5365 7.00501C11.3347 6.47574 11.2819 5.89334 11.3848 5.33146C11.4877 4.76959 11.7416 4.25347 12.1145 3.84838C12.4874 3.44329 12.9626 3.16742 13.4798 3.05566C13.997 2.94389 14.5332 3.00126 15.0204 3.22049C15.5076 3.43972 15.9241 3.81098 16.2171 4.28731C16.5101 4.76365 16.6664 5.32367 16.6664 5.89655C16.6643 6.66406 16.3827 7.39948 15.8831 7.94219C15.3835 8.4849 14.7065 8.79081 14 8.7931ZM14 4.44828C13.7363 4.44828 13.4785 4.53322 13.2593 4.69236C13.0401 4.85149 12.8692 5.07768 12.7683 5.34232C12.6674 5.60696 12.641 5.89816 12.6924 6.1791C12.7438 6.46004 12.8708 6.71809 13.0573 6.92064C13.2437 7.12318 13.4813 7.26112 13.7399 7.317C13.9985 7.37288 14.2666 7.3442 14.5102 7.23459C14.7538 7.12497 14.962 6.93934 15.1085 6.70117C15.255 6.463 15.3332 6.18299 15.3332 5.89655C15.3322 5.5128 15.1914 5.14509 14.9416 4.87373C14.6918 4.60238 14.3533 4.44942 14 4.44828Z" fill="white"/>
</svg>
