<svg width="28" height="28" viewBox="0 0 28 28" fill="none" xmlns="http://www.w3.org/2000/svg">
<circle cx="14" cy="14" r="14" fill="#8572FF"/>
<path d="M20.3769 7.61905C19.5476 6.78558 18.5599 6.12475 17.4712 5.6751C16.3826 5.22544 15.2149 4.99597 14.0362 5.00005C9.09749 5.00005 5.07236 9.00504 5.07236 13.919C5.07236 15.494 5.48844 17.024 6.26633 18.374L5 23L9.74874 21.758C11.0603 22.469 12.5347 22.847 14.0362 22.847C18.9749 22.847 23 18.842 23 13.928C23 11.543 22.0683 9.30204 20.3769 7.61905V7.61905ZM14.0362 21.335C12.6975 21.335 11.3859 20.975 10.2372 20.3L9.96583 20.138L7.14372 20.876L7.89447 18.14L7.71357 17.861C6.96982 16.6793 6.5749 15.3133 6.57387 13.919C6.57387 9.83304 9.9206 6.50305 14.0271 6.50305C16.0171 6.50305 17.8894 7.27705 19.2915 8.68104C19.9857 9.36861 20.5358 10.1864 20.91 11.0871C21.2842 11.9878 21.475 12.9534 21.4714 13.928C21.4894 18.014 18.1427 21.335 14.0362 21.335V21.335ZM18.1246 15.791C17.8985 15.683 16.795 15.143 16.596 15.062C16.3879 14.99 16.2432 14.954 16.0894 15.17C15.9357 15.395 15.5106 15.899 15.3839 16.043C15.2573 16.196 15.1216 16.214 14.8955 16.097C14.6693 15.989 13.9457 15.746 13.0955 14.99C12.4261 14.396 11.9829 13.667 11.8472 13.442C11.7206 13.217 11.8291 13.1 11.9467 12.983C12.0462 12.884 12.1729 12.722 12.2814 12.596C12.3899 12.47 12.4352 12.371 12.5075 12.227C12.5799 12.074 12.5437 11.948 12.4894 11.84C12.4352 11.732 11.9829 10.634 11.802 10.184C11.6211 9.75204 11.4312 9.80604 11.2955 9.79704H10.8613C10.7075 9.79704 10.4724 9.85104 10.2643 10.076C10.0653 10.301 9.48643 10.841 9.48643 11.939C9.48643 13.037 10.2915 14.099 10.4 14.243C10.5085 14.396 11.9829 16.646 14.2261 17.609C14.7598 17.843 15.1759 17.978 15.5015 18.077C16.0352 18.248 16.5236 18.221 16.9126 18.167C17.3467 18.104 18.2422 17.627 18.4231 17.105C18.6131 16.583 18.6131 16.142 18.5497 16.043C18.4864 15.944 18.3508 15.899 18.1246 15.791V15.791Z" fill="white"/>
</svg>
