<svg width="12" height="12" viewBox="0 0 12 12" fill="none" xmlns="http://www.w3.org/2000/svg">
<path d="M10.75 2.00004H9.41668V3.00004C9.41668 3.09634 9.39771 3.1917 9.36086 3.28067C9.324 3.36965 9.26999 3.45049 9.20189 3.51858C9.1338 3.58668 9.05295 3.6407 8.96398 3.67755C8.87501 3.7144 8.77965 3.73337 8.68335 3.73337C8.58704 3.73337 8.49168 3.7144 8.40271 3.67755C8.31374 3.6407 8.2329 3.58668 8.1648 3.51858C8.09671 3.45049 8.04269 3.36965 8.00584 3.28067C7.96898 3.1917 7.95001 3.09634 7.95001 3.00004V2.00004H4.06668V3.00004C4.06668 3.19453 3.98942 3.38106 3.85189 3.51858C3.71437 3.65611 3.52784 3.73337 3.33335 3.73337C3.13886 3.73337 2.95233 3.65611 2.8148 3.51858C2.67728 3.38106 2.60001 3.19453 2.60001 3.00004V2.00004H1.26668C1.18736 1.99914 1.10865 2.01415 1.03523 2.04419C0.96181 2.07424 0.895159 2.1187 0.839219 2.17495C0.783279 2.2312 0.739188 2.29809 0.709552 2.37168C0.679917 2.44527 0.665339 2.52405 0.666681 2.60337V10.0634C0.665357 10.1413 0.679396 10.2187 0.707996 10.2912C0.736597 10.3637 0.779199 10.4299 0.833368 10.4859C0.887538 10.5419 0.952214 10.5867 1.0237 10.6177C1.09519 10.6488 1.17209 10.6654 1.25001 10.6667H10.75C10.8279 10.6654 10.9048 10.6488 10.9763 10.6177C11.0478 10.5867 11.1125 10.5419 11.1667 10.4859C11.2208 10.4299 11.2634 10.3637 11.292 10.2912C11.3206 10.2187 11.3347 10.1413 11.3333 10.0634V2.60337C11.3347 2.52545 11.3206 2.44803 11.292 2.37554C11.2634 2.30305 11.2208 2.2369 11.1667 2.18087C11.1125 2.12484 11.0478 2.08003 10.9763 2.04901C10.9048 2.01798 10.8279 2.00134 10.75 2.00004V2.00004ZM3.33335 8.66671H2.66668V8.00004H3.33335V8.66671ZM3.33335 7.00004H2.66668V6.33337H3.33335V7.00004ZM3.33335 5.33337H2.66668V4.66671H3.33335V5.33337ZM5.33335 8.66671H4.66668V8.00004H5.33335V8.66671ZM5.33335 7.00004H4.66668V6.33337H5.33335V7.00004ZM5.33335 5.33337H4.66668V4.66671H5.33335V5.33337ZM7.33335 8.66671H6.66668V8.00004H7.33335V8.66671ZM7.33335 7.00004H6.66668V6.33337H7.33335V7.00004ZM7.33335 5.33337H6.66668V4.66671H7.33335V5.33337ZM9.33335 8.66671H8.66668V8.00004H9.33335V8.66671ZM9.33335 7.00004H8.66668V6.33337H9.33335V7.00004ZM9.33335 5.33337H8.66668V4.66671H9.33335V5.33337Z" fill="#FDFDFF"/>
<path d="M3.33333 3.33329C3.42174 3.33329 3.50652 3.29817 3.56904 3.23566C3.63155 3.17315 3.66667 3.08836 3.66667 2.99996V0.999959C3.66667 0.911554 3.63155 0.826769 3.56904 0.764257C3.50652 0.701745 3.42174 0.666626 3.33333 0.666626C3.24493 0.666626 3.16014 0.701745 3.09763 0.764257C3.03512 0.826769 3 0.911554 3 0.999959V2.99996C3 3.08836 3.03512 3.17315 3.09763 3.23566C3.16014 3.29817 3.24493 3.33329 3.33333 3.33329Z" fill="#FDFDFF"/>
<path d="M8.66668 3.33329C8.75508 3.33329 8.83987 3.29817 8.90238 3.23566C8.96489 3.17315 9.00001 3.08836 9.00001 2.99996V0.999959C9.00001 0.911554 8.96489 0.826769 8.90238 0.764257C8.83987 0.701745 8.75508 0.666626 8.66668 0.666626C8.57827 0.666626 8.49349 0.701745 8.43097 0.764257C8.36846 0.826769 8.33334 0.911554 8.33334 0.999959V2.99996C8.33334 3.08836 8.36846 3.17315 8.43097 3.23566C8.49349 3.29817 8.57827 3.33329 8.66668 3.33329Z" fill="#FDFDFF"/>
</svg>
