<svg width="22" height="27" viewBox="0 0 22 27" fill="none" xmlns="http://www.w3.org/2000/svg">
<g clip-path="url(#clip0_25_93)">
<path d="M17.4167 0H21.0833C21.5893 0 22 0.496929 22 1.10922V5.54609C22 6.15837 21.5893 6.6553 21.0833 6.6553H17.4167C16.9107 6.6553 16.5 6.15837 16.5 5.54609V1.10922C16.5 0.496929 16.9107 0 17.4167 0Z" fill="white"/>
<path d="M17.4167 9.98297H21.0833C21.5893 9.98297 22 10.4799 22 11.0922V15.5291C22 16.1413 21.5893 16.6383 21.0833 16.6383H17.4167C16.9107 16.6383 16.5 16.1413 16.5 15.5291V11.0922C16.5 10.4799 16.9107 9.98297 17.4167 9.98297Z" fill="white"/>
<path d="M17.4167 19.9659H21.0833C21.5893 19.9659 22 20.4628 22 21.0751V25.512C22 26.1243 21.5893 26.6212 21.0833 26.6212H17.4167C16.9107 26.6212 16.5 26.1243 16.5 25.512V21.0751C16.5 20.4628 16.9107 19.9659 17.4167 19.9659Z" fill="white"/>
<path d="M9.16667 0H12.8333C13.3393 0 13.75 0.496929 13.75 1.10922V5.54609C13.75 6.15837 13.3393 6.6553 12.8333 6.6553H9.16667C8.66067 6.6553 8.25 6.15837 8.25 5.54609V1.10922C8.25 0.496929 8.66067 0 9.16667 0Z" fill="white"/>
<path d="M9.16667 9.98297H12.8333C13.3393 9.98297 13.75 10.4799 13.75 11.0922V15.5291C13.75 16.1413 13.3393 16.6383 12.8333 16.6383H9.16667C8.66067 16.6383 8.25 16.1413 8.25 15.5291V11.0922C8.25 10.4799 8.66067 9.98297 9.16667 9.98297Z" fill="white"/>
<path d="M9.16667 19.9659H12.8333C13.3393 19.9659 13.75 20.4628 13.75 21.0751V25.512C13.75 26.1243 13.3393 26.6212 12.8333 26.6212H9.16667C8.66067 26.6212 8.25 26.1243 8.25 25.512V21.0751C8.25 20.4628 8.66067 19.9659 9.16667 19.9659Z" fill="white"/>
<path d="M0.916667 0H4.58333C5.08933 0 5.5 0.496929 5.5 1.10922V5.54609C5.5 6.15837 5.08933 6.6553 4.58333 6.6553H0.916667C0.410667 6.6553 -1.19209e-07 6.15837 -1.19209e-07 5.54609V1.10922C-1.19209e-07 0.496929 0.410667 0 0.916667 0Z" fill="white"/>
<path d="M0.916667 9.98297H4.58333C5.08933 9.98297 5.5 10.4799 5.5 11.0922V15.5291C5.5 16.1413 5.08933 16.6383 4.58333 16.6383H0.916667C0.410667 16.6383 -1.19209e-07 16.1413 -1.19209e-07 15.5291V11.0922C-1.19209e-07 10.4799 0.410667 9.98297 0.916667 9.98297Z" fill="white"/>
<path d="M0.916667 19.9659H4.58333C5.08933 19.9659 5.5 20.4628 5.5 21.0751V25.512C5.5 26.1243 5.08933 26.6212 4.58333 26.6212H0.916667C0.410667 26.6212 -1.19209e-07 26.1243 -1.19209e-07 25.512V21.0751C-1.19209e-07 20.4628 0.410667 19.9659 0.916667 19.9659Z" fill="white"/>
</g>
<defs>
<clipPath id="clip0_25_93">
<rect width="22" height="26.6212" fill="white" transform="matrix(-1 0 0 1 22 0)"/>
</clipPath>
</defs>
</svg>
