<svg width="120" height="111" viewBox="0 0 120 111" fill="none" xmlns="http://www.w3.org/2000/svg">
<g clip-path="url(#clip0_198_2456)">
<ellipse cx="58" cy="106.5" rx="58" ry="5.5" transform="rotate(0.575538 58 106.5)" fill="#FB5959" fill-opacity="0.4"/>
<path d="M31.2459 102.661C30.2543 103.017 25.8918 102.296 22.6259 102.016C21.7824 101.943 22.1654 96.9586 22.1654 96.9586L25.5983 97.7614C25.5983 97.7614 29.4764 99.8578 31.2459 99.8578C33.0697 99.8581 32.2369 102.308 31.2459 102.661Z" fill="#120000"/>
<path d="M23.0796 103.086C22.0608 103.348 17.7803 102.23 14.5541 101.65C13.7197 101.5 14.548 96.5712 14.548 96.5712L17.8946 97.6858C17.8946 97.6858 21.5693 100.131 23.3305 100.293C25.1478 100.462 24.0987 102.824 23.0796 103.086Z" fill="#2C1216"/>
<path d="M26.876 98.1479H21.6281L20.5189 60.1124L27.921 57.8403L26.876 98.1479Z" fill="#1F3D55"/>
<path d="M18.8795 98.1479H13.6316L12.5224 57.8403L19.9244 60.1124L18.8795 98.1479Z" fill="#1F3D55"/>
<path d="M27.9209 56.8736C27.9209 60.3117 24.4632 63.0983 20.1966 63.0983C15.932 63.0983 12.4736 60.3114 12.4736 56.8736C12.4736 53.4359 15.932 50.6493 20.1966 50.6493C24.4632 50.6496 27.9209 53.4359 27.9209 56.8736Z" fill="#1F3D55"/>
<path d="M11.8511 37.6833C14.0682 31.4691 13.9029 26.5293 14.5752 26.0508C15.2478 25.573 16.6273 25.4254 16.6273 25.4254H19.8861H23.1452C23.1452 25.4254 24.5243 25.573 25.1969 26.0508C25.8696 26.5293 25.7033 31.4691 27.9213 37.6833C28.0085 42.3849 28.1955 58.0579 28.1955 58.0579C28.1955 58.0579 25.1068 59.868 19.9203 59.868C19.9087 59.868 19.8983 59.8673 19.8864 59.8673C19.8754 59.8673 19.8641 59.868 19.8525 59.868C14.6659 59.868 11.577 58.0579 11.577 58.0579C11.577 58.0579 11.7649 42.3852 11.8511 37.6833Z" fill="#289EA9"/>
<path d="M29.7735 31.3202C29.7735 31.3202 29.8055 31.3988 29.8652 31.546C29.9236 31.6828 30.0157 31.9384 30.1293 32.2391C30.2436 32.5445 30.3867 32.9182 30.513 33.323C30.6473 33.7327 30.7987 34.1948 30.9637 34.6988C31.1071 35.2047 31.2624 35.7528 31.4268 36.3324C31.5082 36.622 31.5918 36.9195 31.6774 37.2235C31.7497 37.5298 31.8236 37.8427 31.8989 38.1608C32.0487 38.7963 32.2034 39.4531 32.3606 40.1203C32.5056 40.7892 32.6196 41.4748 32.751 42.1562C32.875 42.8388 33.0126 43.5185 33.1224 44.1913C33.2138 44.8668 33.3039 45.5314 33.391 46.1748C33.4779 46.8169 33.5612 47.4373 33.6406 48.0261C33.7198 48.6141 33.7433 49.1764 33.7921 49.6915C33.9594 51.7528 34.0704 53.1266 34.0704 53.1266L31.7226 53.3518C31.7226 53.3518 31.5082 52.03 31.1869 50.0478C31.1 49.554 31.0354 49.0147 30.9134 48.4535C30.7916 47.8932 30.6631 47.3019 30.5301 46.6906C30.3977 46.0806 30.2608 45.4496 30.1216 44.8089C29.9647 44.1733 29.7806 43.5339 29.6104 42.8918C29.4328 42.2521 29.2733 41.6074 29.0851 40.9833C28.8855 40.3638 28.6895 39.7538 28.4996 39.1638C28.405 38.8693 28.312 38.5793 28.2209 38.2959C28.1179 38.0177 28.0172 37.7458 27.919 37.4811C27.7227 36.9525 27.5374 36.4525 27.3662 35.9914C27.178 35.5421 27.0052 35.1304 26.8521 34.7652C26.702 34.3908 26.5622 34.1028 26.4488 33.8603C26.3329 33.6143 26.2557 33.4352 26.1773 33.2857C26.1062 33.1437 26.0681 33.0681 26.0681 33.0681L29.7735 31.3202Z" fill="#FAB587"/>
<path d="M22.2349 22.7849H17.5226V26.5725H22.2349V22.7849Z" fill="#DEA27B"/>
<path d="M11.8478 15.2221C11.8478 16.7202 12.5699 17.936 13.4601 17.936C14.3517 17.936 15.0721 16.7202 15.0721 15.2221C15.0721 13.7226 14.3517 12.5072 13.4601 12.5072C12.5699 12.5072 11.8478 13.7226 11.8478 15.2221Z" fill="#FAB587"/>
<path d="M26.5576 17.936C27.4479 17.936 28.1696 16.7209 28.1696 15.2221C28.1696 13.7232 27.4479 12.5082 26.5576 12.5082C25.6674 12.5082 24.9457 13.7232 24.9457 15.2221C24.9457 16.7209 25.6674 17.936 26.5576 17.936Z" fill="#FAB587"/>
<path d="M23.5026 51.4665C23.6453 54.3345 24.2589 56.7231 25.4359 57.2208C27.1415 57.9424 28.1951 56.1465 28.1951 56.1465C28.1951 56.1465 28.0078 42.3852 27.921 37.6836C25.7029 31.4695 25.8692 26.5296 25.1966 26.0512C24.5243 25.5734 23.1448 25.4258 23.1448 25.4258L23.0018 39.4901C23.0021 39.4897 23.2407 46.2147 23.5026 51.4665Z" fill="#F05A28"/>
<path d="M23.8869 54.4935C23.7703 53.9817 23.6783 53.4198 23.6115 52.8216H26.8047V33.9307C27.0908 35.1062 27.4502 36.3632 27.921 37.6836C27.9891 41.3852 28.1205 50.6984 28.1722 54.4939H23.8869V54.4935Z" fill="#FFDD15"/>
<path d="M35.5074 53.7471C35.8726 55.3532 35.498 56.8923 34.3953 57.196C33.299 57.501 31.7985 56.2322 31.3629 54.3479C30.9253 52.4629 31.7652 50.9177 32.9257 50.8908C34.095 50.863 35.1299 52.1403 35.5074 53.7471Z" fill="#FAB587"/>
<path d="M14.0669 19.5739C14.921 22.6304 18.5008 24.8538 19.9774 24.8538C21.4544 24.8538 24.9605 22.6059 25.887 19.5739C26.7908 16.6224 26.9707 14.2921 26.9707 12.0422C26.9707 9.79235 24.6396 3.92441 19.9771 3.92441C15.314 3.92441 12.9832 8.52098 12.9832 11.3569C12.9839 14.1942 13.4602 17.4049 14.0669 19.5739Z" fill="#FAB587"/>
<path d="M13.8296 15.0575C13.2302 15.1884 13.6558 12.8351 13.2089 12.6859C12.9154 12.5881 12.5734 12.9245 12.3403 13.2707C11.8479 10.0201 12.5773 2.68445 20.5193 2.68445C27.8015 2.68445 28.1693 10.4603 27.8015 13.4942C27.5005 13.0233 27.1667 12.7412 26.7575 12.6247C26.3484 12.5072 26.8867 14.3886 25.7752 15.0575C25.7752 15.0575 25.7078 10.3804 23.677 9.49127C21.6472 8.60213 21.7825 11.0968 19.6616 11.0968C17.5407 11.0968 17.9014 9.0593 16.0512 9.49127C14.2015 9.92194 14.5174 11.6341 13.8296 15.0575Z" fill="#371B14"/>
<path d="M28.2736 10.1985C28.2736 5.68697 24.6179 2.02994 20.1066 2.02994C15.5975 2.02994 11.9409 5.68697 11.9409 10.1985H28.2736Z" fill="#F6921E"/>
<path d="M15.8426 3.24176C18.3654 4.63225 20.3139 7.16583 20.796 10.1985H11.9409C11.9409 7.25255 13.505 4.67872 15.8426 3.24176Z" fill="#F37920"/>
<path d="M14.8419 10.1985H28.2732L30.9524 10.9004C30.9524 10.9004 30.4955 11.9218 29.9317 11.9218C29.9317 11.9218 18.2385 11.9218 17.13 11.9218C16.0218 11.9218 14.8419 10.1985 14.8419 10.1985Z" fill="#FAAF40"/>
<path d="M28.1951 39.4897L32.4711 37.0923C32.4711 37.0923 30.244 30.0587 28.9465 28.3835C27.6488 26.7089 25.1966 26.0512 25.1966 26.0512C25.1966 26.0512 25.6441 32.5651 27.921 37.6836C27.9416 38.8994 28.1951 39.4897 28.1951 39.4897Z" fill="#20868F"/>
<path d="M13.7036 33.0677C13.7036 33.0677 13.6655 33.1433 13.5945 33.2854C13.516 33.4349 13.4388 33.6139 13.3229 33.86C13.2099 34.1022 13.0697 34.3905 12.9196 34.7649C12.7665 35.1301 12.5938 35.5418 12.4055 35.9911C12.2344 36.4522 12.049 36.9522 11.8527 37.4807C11.7545 37.7458 11.6538 38.0177 11.5508 38.2956C11.4597 38.579 11.3667 38.8689 11.2721 39.1635C11.0822 39.7535 10.8859 40.3635 10.6867 40.983C10.4984 41.607 10.3386 42.2517 10.1613 42.8915C9.99112 43.5336 9.80706 44.173 9.65013 44.8085C9.51095 45.4493 9.37436 46.0802 9.24197 46.6902C9.10893 47.3015 8.98042 47.8929 8.85868 48.4531C8.73694 49.0144 8.67204 49.5537 8.58517 50.0475C8.26388 52.0297 8.04947 53.3514 8.04947 53.3514L5.7016 53.1263C5.7016 53.1263 5.813 51.7528 5.97995 49.6911C6.02871 49.176 6.05228 48.6138 6.13139 48.0257C6.21083 47.437 6.29446 46.8166 6.381 46.1745C6.46818 45.5311 6.55795 44.8668 6.64966 44.191C6.75977 43.5182 6.89701 42.8385 7.021 42.1558C7.15243 41.4745 7.26642 40.7889 7.4114 40.12C7.56866 39.4527 7.72333 38.796 7.87316 38.1604C7.9484 37.842 8.02234 37.5292 8.09468 37.2232C8.18025 36.9192 8.26388 36.6217 8.34525 36.3321C8.50961 35.7525 8.66493 35.2044 8.8083 34.6984C8.97363 34.1945 9.12476 33.7324 9.25909 33.3227C9.38534 32.9182 9.52807 32.5441 9.6427 32.2388C9.75636 31.9381 9.84839 31.6825 9.90684 31.5457C9.96658 31.3984 9.99855 31.3199 9.99855 31.3199L13.7036 33.0677Z" fill="#FAB587"/>
<path d="M16.2698 51.4665C16.1261 54.3345 15.5129 56.7231 14.3352 57.2208C12.6299 57.9424 11.5763 56.1465 11.5763 56.1465C11.5763 56.1465 11.7646 42.3852 11.8511 37.6836C14.0682 31.4695 13.9029 26.5296 14.5751 26.0512C15.2478 25.5734 16.6272 25.4258 16.6272 25.4258L16.77 39.4901C16.77 39.4897 16.5313 46.2147 16.2698 51.4665Z" fill="#F05A28"/>
<path d="M15.8848 54.4935C16.0017 53.9817 16.0938 53.4198 16.1606 52.8216H12.9677V33.9307C12.6813 35.1062 12.3219 36.3632 11.8511 37.6836C11.7829 41.3852 11.6522 50.6984 11.5989 54.4939H15.8848V54.4935Z" fill="#FFDD15"/>
<path d="M4.26467 53.7471C3.89882 55.3532 4.27372 56.8923 5.37709 57.196C6.47305 57.501 7.9736 56.2322 8.40888 54.3479C8.8461 52.4629 8.00654 50.9177 6.84633 50.8908C5.6774 50.863 4.64183 52.1403 4.26467 53.7471Z" fill="#FAB587"/>
<path d="M11.5763 39.4897L7.30133 37.0923C7.30133 37.0923 9.52876 30.0587 10.8259 28.3835C12.123 26.7089 14.5752 26.0512 14.5752 26.0512C14.5752 26.0512 14.1276 32.5651 11.8511 37.6836C11.8304 38.8994 11.5763 39.4897 11.5763 39.4897Z" fill="#20868F"/>
<path d="M19.8518 28.3831C22.15 28.3831 22.4948 25.4254 22.4948 25.4254H17.2085C17.2085 25.4254 17.5537 28.3831 19.8518 28.3831Z" fill="#FAB587"/>
<path d="M37.2973 53.3014H33.3275V55.6127H37.2973V53.3014Z" fill="#989A9D"/>
<path d="M35.3124 54.2677C37.6974 54.2677 39.6309 52.3082 39.6309 49.8911C39.6309 47.4739 37.6974 45.5144 35.3124 45.5144C32.9273 45.5144 30.9938 47.4739 30.9938 49.8911C30.9938 52.3082 32.9273 54.2677 35.3124 54.2677Z" fill="#BBBDBF"/>
<path d="M35.3123 53.302C37.1711 53.302 38.678 51.7749 38.678 49.8911C38.678 48.0073 37.1711 46.4801 35.3123 46.4801C33.4535 46.4801 31.9467 48.0073 31.9467 49.8911C31.9467 51.7749 33.4535 53.302 35.3123 53.302Z" fill="#9A3427"/>
<path d="M35.3123 52.5778C36.7765 52.5778 37.9634 51.3749 37.9634 49.8911C37.9634 48.4072 36.7765 47.2043 35.3123 47.2043C33.8482 47.2043 32.6613 48.4072 32.6613 49.8911C32.6613 51.3749 33.8482 52.5778 35.3123 52.5778Z" fill="#BF4235"/>
<path d="M33.1773 49.8911C33.1773 48.6956 34.1331 47.7273 35.3124 47.7273C36.4916 47.7273 33.1773 51.0862 33.1773 49.8911Z" fill="white"/>
<path d="M86.0891 53.3014H82.1193V55.6127H86.0891V53.3014Z" fill="#989A9D"/>
<path d="M84.1042 54.2677C86.4892 54.2677 88.4227 52.3082 88.4227 49.8911C88.4227 47.4739 86.4892 45.5144 84.1042 45.5144C81.7191 45.5144 79.7856 47.4739 79.7856 49.8911C79.7856 52.3082 81.7191 54.2677 84.1042 54.2677Z" fill="#BBBDBF"/>
<path d="M84.1041 53.302C85.963 53.302 87.4698 51.7749 87.4698 49.8911C87.4698 48.0073 85.963 46.4801 84.1041 46.4801C82.2453 46.4801 80.7385 48.0073 80.7385 49.8911C80.7385 51.7749 82.2453 53.302 84.1041 53.302Z" fill="#9A3427"/>
<path d="M84.1042 52.5778C85.5683 52.5778 86.7552 51.3749 86.7552 49.8911C86.7552 48.4072 85.5683 47.2043 84.1042 47.2043C82.64 47.2043 81.4531 48.4072 81.4531 49.8911C81.4531 51.3749 82.64 52.5778 84.1042 52.5778Z" fill="#BF4235"/>
<path d="M81.9688 49.8911C81.9688 48.6956 82.9249 47.7273 84.1042 47.7273C85.2834 47.7273 81.9688 51.0862 81.9688 49.8911Z" fill="white"/>
<path d="M87.329 55.7577H80.8793V100.79H87.329V55.7577Z" fill="#BBBDBF"/>
<path d="M38.5372 55.7577H32.0878V100.79H38.5372V55.7577Z" fill="#BBBDBF"/>
<path d="M89.923 55.4959H26.7607V63.403H89.923V55.4959Z" fill="#FFC520"/>
<path d="M34.8758 63.403H26.7607L33.2625 55.4959H41.3775L34.8758 63.403Z" fill="black"/>
<path d="M51.0577 63.403H42.9427L49.4445 55.4959H57.5595L51.0577 63.403Z" fill="black"/>
<path d="M67.2396 63.403H59.1243L65.6264 55.4959H73.7414L67.2396 63.403Z" fill="black"/>
<path d="M83.4212 63.403H75.3062L81.808 55.4959H89.923L83.4212 63.403Z" fill="black"/>
<path d="M89.923 70.9219H26.7607V78.8289H89.923V70.9219Z" fill="#FFC520"/>
<path d="M34.8758 78.8289H26.7607L33.2625 70.9219H41.3775L34.8758 78.8289Z" fill="black"/>
<path d="M51.0577 78.8289H42.9427L49.4445 70.9219H57.5595L51.0577 78.8289Z" fill="black"/>
<path d="M67.2396 78.8289H59.1243L65.6264 70.9219H73.7414L67.2396 78.8289Z" fill="black"/>
<path d="M83.4212 78.8289H75.3062L81.808 70.9219H89.923L83.4212 78.8289Z" fill="black"/>
<path d="M35.3123 60.7921C36.3454 60.7921 37.1829 59.9434 37.1829 58.8964C37.1829 57.8494 36.3454 57.0006 35.3123 57.0006C34.2792 57.0006 33.4417 57.8494 33.4417 58.8964C33.4417 59.9434 34.2792 60.7921 35.3123 60.7921Z" fill="#BBBDBF"/>
<path d="M36.6065 60.2653C35.8606 60.9895 34.6768 60.9639 33.9619 60.2083C33.2473 59.4527 33.2725 58.2523 34.0181 57.5278L36.6065 60.2653Z" fill="#BBBDBF"/>
<path d="M35.3124 76.7705C36.3453 76.7705 37.1827 75.9219 37.1827 74.8751C37.1827 73.8282 36.3453 72.9796 35.3124 72.9796C34.2794 72.9796 33.4421 73.8282 33.4421 74.8751C33.4421 75.9219 34.2794 76.7705 35.3124 76.7705Z" fill="#BBBDBF"/>
<path d="M36.6065 76.2443C35.8606 76.9685 34.6768 76.943 33.9619 76.1867C33.2473 75.4311 33.2725 74.2307 34.0181 73.5068L36.6065 76.2443Z" fill="#BBBDBF"/>
<path d="M84.1042 60.7921C85.1373 60.7921 85.9748 59.9434 85.9748 58.8964C85.9748 57.8494 85.1373 57.0006 84.1042 57.0006C83.0711 57.0006 82.2336 57.8494 82.2336 58.8964C82.2336 59.9434 83.0711 60.7921 84.1042 60.7921Z" fill="#BBBDBF"/>
<path d="M85.3984 60.2653C84.6525 60.9895 83.468 60.9639 82.7538 60.2083C82.0388 59.4527 82.064 58.2523 82.8103 57.5278L85.3984 60.2653Z" fill="#BBBDBF"/>
<path d="M84.1042 76.7705C85.1371 76.7705 85.9745 75.9219 85.9745 74.8751C85.9745 73.8282 85.1371 72.9796 84.1042 72.9796C83.0712 72.9796 82.2339 73.8282 82.2339 74.8751C82.2339 75.9219 83.0712 76.7705 84.1042 76.7705Z" fill="#BBBDBF"/>
<path d="M85.3984 76.2443C84.6525 76.9685 83.468 76.943 82.7538 76.1867C82.0388 75.4311 82.064 74.2307 82.8103 73.5068L85.3984 76.2443Z" fill="#BBBDBF"/>
<path d="M95.7428 99.7858H84.1035V101.691H95.7428V99.7858Z" fill="#F05A28"/>
<path d="M91.2656 82.4562H88.58L84.999 99.7858H94.847L91.2656 82.4562Z" fill="#DA5224"/>
<path d="M94.7534 99.3322L94.5093 98.1521H85.3361L85.0923 99.3322H94.7534Z" fill="white"/>
<path d="M94.2845 97.0637L94.0598 95.9752H85.7862L85.5615 97.0637H94.2845Z" fill="white"/>
<path d="M89.7435 82.4562H88.58L84.999 99.7858H89.7435V82.4562Z" fill="#BCA99A"/>
<path d="M88.9827 101.659H77.3441V103.564H88.9827V101.659Z" fill="#F05A28"/>
<path d="M84.5063 84.329H81.8203L78.2393 101.659H88.0873L84.5063 84.329Z" fill="#DA5224"/>
<path d="M87.9937 101.205L87.7499 100.026H78.5764L78.3329 101.205H87.9937Z" fill="white"/>
<path d="M87.5247 98.9372L87.3 97.8481H79.0268L78.8017 98.9372H87.5247Z" fill="white"/>
<path d="M82.9844 84.329H81.8203L78.2393 101.659H82.9844V84.329Z" fill="#BCA99A"/>
<path d="M75.3062 99.7858H63.6673V101.691H75.3062V99.7858Z" fill="#F05A28"/>
<path d="M70.8298 82.4562H68.1441L64.5627 99.7858H74.4108L70.8298 82.4562Z" fill="#DA5224"/>
<path d="M74.3175 99.3322L74.073 98.1521H64.9002L64.6564 99.3322H74.3175Z" fill="white"/>
<path d="M73.8486 97.0637L73.6236 95.9752H65.3503L65.1255 97.0637H73.8486Z" fill="white"/>
<path d="M69.3076 82.4562H68.1441L64.5627 99.7858H69.3076V82.4562Z" fill="#BCA99A"/>
<path d="M82.509 107.27C83.521 107.632 87.9746 106.896 91.3083 106.611C92.1698 106.536 91.7781 101.448 91.7781 101.448L88.2739 102.268C88.2739 102.268 84.3144 104.408 82.5087 104.408C80.6465 104.408 81.4971 106.908 82.509 107.27Z" fill="#120000"/>
<path d="M90.8456 107.703C91.886 107.971 96.255 106.829 99.5483 106.238C100.401 106.084 99.5551 101.053 99.5551 101.053L96.1384 102.191C96.1384 102.191 92.3872 104.687 90.5889 104.853C88.7344 105.024 89.8055 107.435 90.8456 107.703Z" fill="#2C1216"/>
<path d="M86.9697 102.661H92.3268L93.4599 63.8323L85.9031 61.5127L86.9697 102.661Z" fill="#1F3D55"/>
<path d="M95.1335 102.661H100.491L101.623 61.5127L94.0669 63.8323L95.1335 102.661Z" fill="#1F3D55"/>
<path d="M85.9031 60.5267C85.9031 64.0365 89.4335 66.8806 93.7892 66.8806C98.1427 66.8806 101.673 64.0365 101.673 60.5267C101.673 57.017 98.1427 54.1722 93.7892 54.1722C89.4332 54.1722 85.9031 57.017 85.9031 60.5267Z" fill="#1F3D55"/>
<path d="M102.308 40.9355C100.045 34.5914 100.214 29.5488 99.5276 29.0612C98.8408 28.5729 97.4329 28.4224 97.4329 28.4224H94.1063H90.7787C90.7787 28.4224 89.3709 28.5729 88.6847 29.0612C87.9975 29.5488 88.1667 34.5914 85.9031 40.9355C85.815 45.7353 85.6232 61.7359 85.6232 61.7359C85.6232 61.7359 88.7764 63.5836 94.0717 63.5836C94.0831 63.5836 94.0944 63.5823 94.1063 63.5823C94.117 63.5823 94.1286 63.5836 94.1405 63.5836C99.4349 63.5836 102.588 61.7359 102.588 61.7359C102.588 61.7359 102.397 45.7353 102.308 40.9355Z" fill="#92CDD3"/>
<path d="M96.5181 25.7259H91.7081V29.5927H96.5181V25.7259Z" fill="#DEA27B"/>
<path d="M102.311 18.0057C102.311 19.5352 101.575 20.7762 100.666 20.7762C99.7559 20.7762 99.0203 19.5352 99.0203 18.0057C99.0203 16.4751 99.7556 15.2345 100.666 15.2345C101.575 15.2345 102.311 16.4751 102.311 18.0057Z" fill="#FAB587"/>
<path d="M87.2952 20.7762C88.2042 20.7762 88.9411 19.5358 88.9411 18.0057C88.9411 16.4756 88.2042 15.2352 87.2952 15.2352C86.3862 15.2352 85.6494 16.4756 85.6494 18.0057C85.6494 19.5358 86.3862 20.7762 87.2952 20.7762Z" fill="#FAB587"/>
<path d="M93.7882 55.8536C93.7882 55.8536 93.6271 63.2377 92.4252 63.7459C90.6838 64.4829 84.9712 62.3142 84.9712 62.3142C84.9712 62.3142 85.8146 45.735 85.9031 40.9352C88.167 34.5911 87.9975 29.5485 88.6846 29.0609C89.3708 28.5726 90.7787 28.4221 90.7787 28.4221L93.9293 42.433L93.7882 55.8536Z" fill="#00507E"/>
<path d="M100.047 22.4481C99.1747 25.5685 95.5197 27.8383 94.0123 27.8383C92.5047 27.8383 88.9252 25.5429 87.9788 22.4481C87.0569 19.4351 86.8728 17.056 86.8728 14.7597C86.8728 12.4624 89.2523 6.47237 94.012 6.47237C98.772 6.47237 101.152 11.1645 101.152 14.0603C101.152 16.9559 100.666 20.2336 100.047 22.4481Z" fill="#FAB587"/>
<path d="M100.289 17.8375C100.9 17.971 100.466 15.5683 100.922 15.4165C101.222 15.3167 101.572 15.6599 101.809 16.0137C102.312 12.695 101.567 5.20656 93.4592 5.20656C86.0255 5.20656 85.6496 13.1447 86.0255 16.2421C86.3326 15.7611 86.6739 15.4734 87.0917 15.3543C87.5089 15.2348 86.96 17.1552 88.0944 17.8378C88.0944 17.8378 88.1632 13.0632 90.2366 12.1554C92.3083 11.2483 92.1701 13.7946 94.3352 13.7946C96.5003 13.7946 96.1319 11.7153 98.0206 12.1554C99.909 12.5949 99.5864 14.3428 100.289 17.8375Z" fill="#371B14"/>
<path d="M85.5435 12.8777C85.5435 8.27192 89.2763 4.53864 93.8806 4.53864C98.4847 4.53864 102.217 8.27192 102.217 12.8777H85.5435Z" fill="#BBBDBF"/>
<path d="M98.2338 5.77531C95.6579 7.1946 93.6685 9.7812 93.177 12.8773H102.217C102.217 9.86955 100.62 7.24238 98.2338 5.77531Z" fill="#A6A8AB"/>
<path d="M99.2548 12.8777H85.5431L82.8077 13.5937C82.8077 13.5937 83.2743 14.6366 83.8501 14.6366C83.8501 14.6366 95.7877 14.6366 96.9192 14.6366C98.0507 14.6366 99.2548 12.8777 99.2548 12.8777Z" fill="#D0D2D3"/>
<path d="M93.177 55.8536C93.177 55.8536 92.8644 63.3241 94.0669 63.8323C95.8077 64.5693 103.24 62.3142 103.24 62.3142C103.24 62.3142 102.397 45.735 102.308 40.9352C100.045 34.5911 100.214 29.5485 99.5276 29.0609C98.8408 28.5726 97.4329 28.4221 97.4329 28.4221L93.9293 42.433L93.177 55.8536Z" fill="#00507E"/>
<path d="M103.079 42.9622L106.213 40.8341C106.213 40.8341 104.679 33.1515 103.355 31.4416C102.031 29.7317 99.5273 29.0612 99.5273 29.0612C99.5273 29.0612 99.9842 35.71 102.308 40.9355C102.838 42.2304 103.079 42.9622 103.079 42.9622Z" fill="#00507E"/>
<path d="M94.1412 31.4416C91.7949 31.4416 91.4433 28.4221 91.4433 28.4221H96.8401C96.8397 28.4224 96.4871 31.4416 94.1412 31.4416Z" fill="#FAB587"/>
<path d="M101.253 76.3598H100.592V75.4114H101.591L101.253 76.3598Z" fill="#929497"/>
<path d="M114.269 76.3598H114.931V75.4114H113.931L114.269 76.3598Z" fill="#929497"/>
<path d="M105.251 62.4844V61.1223C105.251 60.8795 105.457 60.6819 105.71 60.6819H109.461C109.714 60.6819 109.92 60.8795 109.92 61.1223V62.4844H110.855V60.5778C110.855 60.2698 110.595 60.0198 110.274 60.0198H104.898C104.577 60.0198 104.317 60.2698 104.317 60.5778V62.4844H105.251Z" fill="#F69227"/>
<path d="M110.393 62.4843C110.302 61.6381 110.656 60.5464 109.499 60.3867C108.699 60.2767 107.884 60.4711 107.079 60.4596C106.516 60.4515 105.913 60.3965 105.36 60.5287C105.191 60.5689 104.881 60.5971 104.798 60.7807C104.722 60.9476 104.662 61.1704 104.662 61.3534C104.661 61.7556 104.669 62.0246 104.446 62.3633C104.414 62.411 104.374 62.4496 104.332 62.4847H105.251V61.1226C105.251 60.8798 105.457 60.6822 105.71 60.6822H109.461C109.714 60.6822 109.92 60.8798 109.92 61.1226V62.4847H110.393V62.4843Z" fill="#CEB5AE"/>
<path d="M116.444 74.1293C116.444 74.7772 115.925 75.3028 115.286 75.3028H99.8857C99.246 75.3028 98.7281 74.7775 98.7281 74.1293V63.2416C98.7281 62.594 99.246 62.0687 99.8857 62.0687H115.286C115.925 62.0687 116.444 62.594 116.444 63.2416V74.1293Z" fill="#2E1100"/>
<path d="M116.1 68.4917V63.7089C116.1 63.0865 115.602 62.5809 114.988 62.5809H100.184C99.5696 62.5809 99.0707 63.0865 99.0707 63.7089V68.4917" stroke="#1F0000" stroke-width="0.5076" stroke-miterlimit="10"/>
<path d="M115.751 74.2493C115.751 74.8309 115.274 75.3028 114.684 75.3028H100.488C99.898 75.3028 99.4197 74.8312 99.4197 74.2493V64.4747C99.4197 63.8925 99.8976 63.4213 100.488 63.4213H114.684C115.273 63.4213 115.751 63.8922 115.751 64.4747V74.2493Z" fill="#502D07"/>
<path opacity="0.3" d="M104.881 63.8235C105.128 64.1595 105.523 64.3405 105.914 64.4439C106.647 64.639 107.416 64.6638 108.171 64.6403C109.634 64.5941 111.234 64.3706 112.65 64.855C113.289 65.0736 113.903 65.445 114.264 66.0412C114.764 66.8662 114.757 67.8284 114.802 68.7633C114.844 69.6096 114.904 70.9091 115.751 71.3679V64.4747C115.751 63.8925 115.273 63.4213 114.684 63.4213H104.761C104.769 63.578 104.808 63.7236 104.881 63.8235Z" fill="white"/>
<path d="M114.538 74.2238C112.934 74.5262 111.154 74.8917 109.536 74.5069C107.535 74.0301 105.535 73.46 104.038 71.9412C102.577 70.4617 101.587 68.5133 101.348 66.4248C101.233 65.4244 101.277 64.405 101.494 63.4213H100.488C99.8983 63.4213 99.42 63.8922 99.42 64.4747V74.2493C99.42 74.8309 99.898 75.3028 100.488 75.3028H114.684C115.274 75.3028 115.751 74.8312 115.751 74.2493V73.9015C115.348 74.073 114.882 74.16 114.538 74.2238Z" fill="#CEB5AE"/>
<path d="M110.311 62.0687H104.861V62.9887H110.311V62.0687Z" fill="#FCB424"/>
<path d="M115.286 75.3028H99.9839V75.7629H115.286V75.3028Z" fill="#D0D2D3"/>
<path d="M80.879 54.3743L89.6894 58.1014L95.0693 45.0398L86.2589 41.3127L80.879 54.3743Z" fill="white"/>
<path d="M88.1919 53.6037C89.7076 54.216 91.2973 54.2186 91.8069 53.391C92.3151 52.569 91.3477 51.1104 89.5701 50.3869C87.7938 49.662 86.1091 50.0321 85.8628 50.9615C85.6141 51.8965 86.6781 52.982 88.1919 53.6037Z" fill="#FAB587"/>
<path d="M85.3926 42.7796L81.7861 40.6285C81.7861 40.6285 83.1558 33.1518 84.4804 31.4419C85.8043 29.7317 88.685 29.0615 88.685 29.0615C88.685 29.0615 88.2274 35.7103 85.9035 40.9358C85.5731 42.0982 85.3926 42.7796 85.3926 42.7796Z" fill="#00507E"/>
<path d="M86.9836 36.8907C86.9836 36.8907 86.9067 37.1662 86.7717 37.6476C86.6371 38.1297 86.442 38.8185 86.2263 39.6412C86.0064 40.4646 85.7504 41.4251 85.4762 42.4543C85.3383 42.9691 85.1966 43.5008 85.0523 44.0415C84.9799 44.3118 84.9076 44.584 84.8343 44.8576C84.8194 44.9113 84.7642 45.1358 84.7481 45.214C84.7313 45.2958 84.7129 45.3799 84.6983 45.4814C84.6344 45.8701 84.6434 46.1768 84.6948 46.4189C84.7452 46.6608 84.8533 46.8781 85.0422 47.1333C85.4275 47.6429 86.1333 48.1635 86.7675 48.5673C87.4098 48.9771 88.0072 49.2991 88.4234 49.5236C88.8461 49.7461 89.0873 49.8727 89.0873 49.8727L87.4611 53.2307C87.4611 53.2307 87.1977 53.1014 86.7369 52.8753C86.2741 52.6413 85.6131 52.3114 84.8068 51.8297C84.4039 51.5875 83.9647 51.3068 83.4971 50.954C83.0321 50.6032 82.5316 50.1702 82.0528 49.5916C81.5784 49.0134 81.1325 48.244 80.9187 47.3876C80.6978 46.5354 80.6956 45.6757 80.7934 44.9332C80.8147 44.7506 80.848 44.5539 80.8858 44.355C80.9261 44.153 80.9371 44.1 80.9884 43.8765C81.0556 43.5977 81.1221 43.3202 81.1883 43.0446C81.3207 42.4936 81.4512 41.9516 81.5771 41.427C81.8293 40.3772 82.065 39.3978 82.2668 38.5577C82.4658 37.7154 82.643 37.0236 82.7657 36.5386C82.8884 36.0536 82.9588 35.7764 82.9588 35.7764L86.9836 36.8907Z" fill="#00507E"/>
<path d="M109.479 57.7994C109.819 59.327 109.479 60.7895 108.467 61.0746C107.462 61.3616 106.081 60.1511 105.676 58.3587C105.269 56.5663 106.035 55.0996 107.101 55.0773C108.174 55.0554 109.128 56.2712 109.479 57.7994Z" fill="#FAB587"/>
<path d="M104.199 34.4392C104.199 34.4392 104.234 34.5184 104.299 34.667C104.362 34.8051 104.462 35.0633 104.585 35.3677C104.71 35.6762 104.864 36.0552 105.004 36.4646C105.151 36.8796 105.318 37.3475 105.499 37.8584C105.658 38.3712 105.831 38.9275 106.014 39.5152C106.105 39.8091 106.198 40.1112 106.293 40.4198C106.375 40.731 106.459 41.0487 106.543 41.3721C106.712 42.018 106.888 42.686 107.066 43.3644C107.232 44.0447 107.366 44.7427 107.518 45.4368C107.662 46.1323 107.821 46.825 107.951 47.5113C108.062 48.2002 108.172 48.8789 108.277 49.535C108.383 50.1912 108.485 50.8254 108.581 51.4262C108.678 52.0277 108.717 52.6023 108.78 53.1295C109.005 55.24 109.156 56.6468 109.156 56.6468L105.62 56.9855C105.62 56.9855 105.438 55.6409 105.164 53.6237C105.089 53.1207 105.038 52.5703 104.929 51.9989C104.82 51.4268 104.706 50.8241 104.587 50.2C104.469 49.5769 104.347 48.9325 104.223 48.278C104.08 47.6284 103.91 46.9749 103.755 46.3178C103.591 45.6633 103.447 45.0029 103.272 44.3635C103.086 43.7283 102.903 43.1029 102.726 42.4981C102.637 42.1954 102.55 41.8983 102.465 41.607C102.368 41.3213 102.273 41.0419 102.18 40.7696C101.995 40.2264 101.819 39.7126 101.658 39.2381C101.478 38.7753 101.314 38.3512 101.168 37.9755C101.025 37.5897 100.891 37.2925 100.783 37.0422C100.672 36.7882 100.599 36.603 100.523 36.4486C100.454 36.302 100.417 36.2234 100.417 36.2234L104.199 34.4392Z" fill="#00507E"/>
</g>
<defs>
<clipPath id="clip0_198_2456">
<rect width="120" height="111" fill="white"/>
</clipPath>
</defs>
</svg>
