<svg width="20" height="20" viewBox="0 0 20 20" fill="none" xmlns="http://www.w3.org/2000/svg">
<path d="M10 0C15.523 0 20 4.478 20 10C20 15.522 15.523 20 10 20C4.477 20 0 15.522 0 10C0 4.478 4.477 0 10 0ZM10 13.5C9.73478 13.5 9.48043 13.6054 9.29289 13.7929C9.10536 13.9804 9 14.2348 9 14.5C9 14.7652 9.10536 15.0196 9.29289 15.2071C9.48043 15.3946 9.73478 15.5 10 15.5C10.2652 15.5 10.5196 15.3946 10.7071 15.2071C10.8946 15.0196 11 14.7652 11 14.5C11 14.2348 10.8946 13.9804 10.7071 13.7929C10.5196 13.6054 10.2652 13.5 10 13.5ZM10 4.75C9.27065 4.75 8.57118 5.03973 8.05546 5.55546C7.53973 6.07118 7.25 6.77065 7.25 7.5C7.25006 7.69002 7.32224 7.87294 7.45197 8.01179C7.5817 8.15064 7.7593 8.23507 7.94888 8.24803C8.13846 8.26098 8.32589 8.20148 8.4733 8.08157C8.62071 7.96165 8.7171 7.79025 8.743 7.602L8.75 7.5C8.75 7.16848 8.8817 6.85054 9.11612 6.61612C9.35054 6.3817 9.66848 6.25 10 6.25C10.3315 6.25 10.6495 6.3817 10.8839 6.61612C11.1183 6.85054 11.25 7.16848 11.25 7.5C11.25 8.039 11.115 8.305 10.605 8.832L10.47 8.97C9.592 9.848 9.25 10.417 9.25 11.5C9.25 11.6989 9.32902 11.8897 9.46967 12.0303C9.61032 12.171 9.80109 12.25 10 12.25C10.1989 12.25 10.3897 12.171 10.5303 12.0303C10.671 11.8897 10.75 11.6989 10.75 11.5C10.75 10.961 10.885 10.695 11.395 10.168L11.53 10.03C12.408 9.152 12.75 8.583 12.75 7.5C12.75 6.77065 12.4603 6.07118 11.9445 5.55546C11.4288 5.03973 10.7293 4.75 10 4.75Z" fill="white"/>
</svg>
