<svg width="14" height="14" viewBox="0 0 14 14" fill="none" xmlns="http://www.w3.org/2000/svg">
<circle cx="7" cy="7" r="7" fill="#8572FF"/>
<path d="M9.33333 3.8H9V3H8.33333V3.8H5.66667V3H5V3.8H4.66667C4.29667 3.8 4.00333 4.16 4.00333 4.6L4 10.2C4 10.4122 4.07024 10.6157 4.19526 10.7657C4.32029 10.9157 4.48986 11 4.66667 11H9.33333C9.7 11 10 10.64 10 10.2V4.6C10 4.16 9.7 3.8 9.33333 3.8ZM9.33333 10.2H4.66667V6.2H9.33333V10.2ZM9.33333 5.4H4.66667V4.6H9.33333V5.4ZM6 7.8H5.33333V7H6V7.8ZM7.33333 7.8H6.66667V7H7.33333V7.8ZM8.66667 7.8H8V7H8.66667V7.8ZM6 9.4H5.33333V8.6H6V9.4ZM7.33333 9.4H6.66667V8.6H7.33333V9.4ZM8.66667 9.4H8V8.6H8.66667V9.4Z" fill="white"/>
</svg>
