<svg width="14" height="11" viewBox="0 0 14 11" fill="none" xmlns="http://www.w3.org/2000/svg">
<path d="M9.8 9.53334V11H0V9.53334C0 9.53334 0 6.60002 4.9 6.60002C9.8 6.60002 9.8 9.53334 9.8 9.53334ZM7.35 2.5667C7.35 2.05906 7.20631 1.56282 6.9371 1.14074C6.66789 0.718653 6.28525 0.389678 5.83757 0.195414C5.3899 0.00114961 4.89728 -0.0496788 4.42203 0.0493563C3.94677 0.148391 3.51023 0.392842 3.16759 0.751795C2.82495 1.11075 2.59161 1.56808 2.49708 2.06597C2.40254 2.56385 2.45106 3.07992 2.6365 3.54891C2.82193 4.01791 3.13595 4.41877 3.53885 4.70079C3.94175 4.98282 4.41544 5.13335 4.9 5.13335C5.54978 5.13335 6.17295 4.86294 6.63241 4.3816C7.09188 3.90026 7.35 3.24742 7.35 2.5667V2.5667ZM9.758 6.60002C10.1883 6.9489 10.5404 7.39233 10.7896 7.89912C11.0387 8.4059 11.1788 8.96373 11.2 9.53334V11H14V9.53334C14 9.53334 14 6.87135 9.758 6.60002V6.60002ZM9.1 3.85578e-05C8.61818 -0.00277209 8.14696 0.148139 7.749 0.432704C8.17421 1.05511 8.40284 1.80131 8.40284 2.5667C8.40284 3.33208 8.17421 4.07828 7.749 4.70069C8.14696 4.98525 8.61818 5.13616 9.1 5.13335C9.74978 5.13335 10.3729 4.86294 10.8324 4.3816C11.2919 3.90026 11.55 3.24742 11.55 2.5667C11.55 1.88598 11.2919 1.23314 10.8324 0.751795C10.3729 0.270454 9.74978 3.85578e-05 9.1 3.85578e-05V3.85578e-05Z" fill="white"/>
</svg>
