<svg width="22" height="20" viewBox="0 0 22 20" fill="none" xmlns="http://www.w3.org/2000/svg">
<path d="M20.08 5.33332H1.25334C0.92093 5.33332 0.602139 5.46537 0.367093 5.70041C0.132047 5.93546 0 6.25425 0 6.58666V18.7467C0 19.0791 0.132047 19.3979 0.367093 19.6329C0.602139 19.868 0.92093 20 1.25334 20H20.08C20.4124 20 20.7312 19.868 20.9663 19.6329C21.2013 19.3979 21.3334 19.0791 21.3334 18.7467V6.58666C21.3334 6.25425 21.2013 5.93546 20.9663 5.70041C20.7312 5.46537 20.4124 5.33332 20.08 5.33332V5.33332ZM14.7867 13.22L8.27335 16.1267C8.17193 16.1723 8.06071 16.1918 7.94983 16.1834C7.83895 16.175 7.73193 16.1391 7.6385 16.0788C7.54507 16.0185 7.46821 15.9357 7.41492 15.8382C7.36162 15.7406 7.33358 15.6312 7.33334 15.52V9.70666C7.33358 9.59547 7.36162 9.4861 7.41492 9.38851C7.46821 9.29092 7.54507 9.20821 7.6385 9.14791C7.73193 9.08761 7.83895 9.05164 7.94983 9.04327C8.06071 9.03491 8.17193 9.0544 8.27335 9.09999L14.7867 12C14.905 12.0522 15.0056 12.1376 15.0762 12.2459C15.1468 12.3542 15.1844 12.4807 15.1844 12.61C15.1844 12.7393 15.1468 12.8658 15.0762 12.9741C15.0056 13.0824 14.905 13.1678 14.7867 13.22V13.22Z" fill="white"/>
<path d="M18.76 0.666668C18.76 0.489856 18.6897 0.320287 18.5647 0.195262C18.4397 0.070238 18.2701 0 18.0933 0H3.42662C3.24981 0 3.08024 0.070238 2.95522 0.195262C2.83019 0.320287 2.75995 0.489856 2.75995 0.666668V1.33334H18.76V0.666668Z" fill="white"/>
<path d="M20.08 3.33333C20.08 3.15652 20.0098 2.98695 19.8848 2.86192C19.7597 2.7369 19.5902 2.66666 19.4134 2.66666H2.08C1.90319 2.66666 1.73362 2.7369 1.60859 2.86192C1.48357 2.98695 1.41333 3.15652 1.41333 3.33333V4H20.08V3.33333Z" fill="white"/>
</svg>
