<svg width="28" height="28" viewBox="0 0 28 28" fill="none" xmlns="http://www.w3.org/2000/svg">
<circle cx="14" cy="14" r="14" fill="#8572FF"/>
<path d="M14 22C12.9174 21.0425 11.9139 19.9928 11 18.8619C9.62857 17.1636 8 14.6343 8 12.2241C7.99941 10.9932 8.35101 9.7898 9.01031 8.76616C9.66961 7.74252 10.607 6.94468 11.7038 6.4736C12.8006 6.00253 14.0075 5.8794 15.1718 6.1198C16.3361 6.3602 17.4055 6.95332 18.2445 7.8241C18.8032 8.40075 19.246 9.08655 19.5473 9.84181C19.8486 10.5971 20.0025 11.4068 20 12.2241C20 14.6343 18.3714 17.1636 17 18.8619C16.0861 19.9928 15.0826 21.0425 14 22ZM14 9.55798C13.318 9.55798 12.664 9.83888 12.1817 10.3389C11.6995 10.8389 11.4286 11.517 11.4286 12.2241C11.4286 12.9312 11.6995 13.6094 12.1817 14.1094C12.664 14.6094 13.318 14.8903 14 14.8903C14.682 14.8903 15.336 14.6094 15.8183 14.1094C16.3005 13.6094 16.5714 12.9312 16.5714 12.2241C16.5714 11.517 16.3005 10.8389 15.8183 10.3389C15.336 9.83888 14.682 9.55798 14 9.55798Z" fill="white"/>
</svg>
