<svg width="24" height="28" viewBox="0 0 24 28" fill="none" xmlns="http://www.w3.org/2000/svg">
<path d="M9.89062 12.9609L14.8523 9.35907L9.89062 5.7572V12.9609Z" fill="white"/>
<path d="M0 26.3754C0 26.8457 0.314484 27.2262 0.703125 27.2262H23.2969C23.6855 27.2262 24 26.8457 24 26.3754V20.4197H0V26.3754ZM3.51562 22.9721H16.9219V22.1213C16.9219 21.651 17.2364 21.2705 17.625 21.2705C18.0136 21.2705 18.3281 21.651 18.3281 22.1213V22.9721H20.4375C20.8261 22.9721 21.1406 23.3527 21.1406 23.8229C21.1406 24.2932 20.8261 24.6738 20.4375 24.6738H18.3281V25.5246C18.3281 25.9948 18.0136 26.3754 17.625 26.3754C17.2364 26.3754 16.9219 25.9948 16.9219 25.5246V24.6738H3.51562C3.12698 24.6738 2.8125 24.2932 2.8125 23.8229C2.8125 23.3527 3.12698 22.9721 3.51562 22.9721Z" fill="white"/>
<path d="M23.2969 0H0.703125C0.314484 0 0 0.380543 0 0.850819V18.718H24V0.850819C24 0.380543 23.6855 0 23.2969 0ZM16.5806 10.0885L9.54938 15.1934C9.33164 15.3512 9.06098 15.3554 8.84077 15.2042C8.62031 15.053 8.48438 14.7705 8.48438 14.4639V4.25409C8.48438 3.94752 8.62031 3.66499 8.84077 3.51377C9.06122 3.36255 9.33173 3.36669 9.54938 3.52455L16.5806 8.62946C16.7921 8.78317 16.9219 9.05986 16.9219 9.35895C16.9219 9.65804 16.7921 9.93479 16.5806 10.0885Z" fill="white"/>
</svg>
