<svg width="34" height="25" viewBox="0 0 34 25" fill="none" xmlns="http://www.w3.org/2000/svg">
<rect x="0.5" y="3.5" width="29" height="21" rx="4.5" stroke="#FFB084"/>
<path d="M22.06 10H7.94C7.6907 10 7.4516 10.099 7.27532 10.2753C7.09904 10.4516 7 10.6907 7 10.94V20.06C7 20.3093 7.09904 20.5484 7.27532 20.7247C7.4516 20.901 7.6907 21 7.94 21H22.06C22.3093 21 22.5484 20.901 22.7247 20.7247C22.901 20.5484 23 20.3093 23 20.06V10.94C23 10.6907 22.901 10.4516 22.7247 10.2753C22.5484 10.099 22.3093 10 22.06 10V10ZM18.09 15.915L13.205 18.095C13.1289 18.1292 13.0455 18.1438 12.9624 18.1375C12.8792 18.1313 12.7989 18.1043 12.7289 18.0591C12.6588 18.0138 12.6012 17.9518 12.5612 17.8786C12.5212 17.8054 12.5002 17.7234 12.5 17.64V13.28C12.5002 13.1966 12.5212 13.1146 12.5612 13.0414C12.6012 12.9682 12.6588 12.9062 12.7289 12.8609C12.7989 12.8157 12.8792 12.7887 12.9624 12.7825C13.0455 12.7762 13.1289 12.7908 13.205 12.825L18.09 15C18.1787 15.0391 18.2542 15.1032 18.3071 15.1844C18.3601 15.2657 18.3883 15.3605 18.3883 15.4575C18.3883 15.5545 18.3601 15.6493 18.3071 15.7306C18.2542 15.8118 18.1787 15.8759 18.09 15.915V15.915Z" fill="#FFDDC5"/>
<path d="M21.0699 6.5C21.0699 6.36739 21.0173 6.24021 20.9235 6.14645C20.8297 6.05268 20.7026 6 20.5699 6H9.56995C9.43734 6 9.31016 6.05268 9.21639 6.14645C9.12262 6.24021 9.06995 6.36739 9.06995 6.5V7H21.0699V6.5Z" fill="#FFDDC5"/>
<path d="M22.0601 8.5C22.0601 8.36739 22.0074 8.24021 21.9136 8.14645C21.8198 8.05268 21.6927 8 21.5601 8H8.56006C8.42745 8 8.30027 8.05268 8.20651 8.14645C8.11274 8.24021 8.06006 8.36739 8.06006 8.5V9H22.0601V8.5Z" fill="#FFDDC5"/>
<path d="M27 0C30.8661 0 34 3.1346 34 7C34 10.8654 30.8661 14 27 14C23.1339 14 20 10.8654 20 7C20 3.1346 23.1339 0 27 0ZM27 9.45C26.8143 9.45 26.6363 9.52375 26.505 9.65503C26.3737 9.7863 26.3 9.96435 26.3 10.15C26.3 10.3357 26.3737 10.5137 26.505 10.645C26.6363 10.7763 26.8143 10.85 27 10.85C27.1857 10.85 27.3637 10.7763 27.495 10.645C27.6262 10.5137 27.7 10.3357 27.7 10.15C27.7 9.96435 27.6262 9.7863 27.495 9.65503C27.3637 9.52375 27.1857 9.45 27 9.45ZM27 3.325C26.4895 3.325 25.9998 3.52781 25.6388 3.88882C25.2778 4.24983 25.075 4.73946 25.075 5.25C25.075 5.38302 25.1256 5.51106 25.2164 5.60825C25.3072 5.70545 25.4315 5.76455 25.5642 5.77362C25.6969 5.78268 25.8281 5.74104 25.9313 5.6571C26.0345 5.57316 26.102 5.45318 26.1201 5.3214L26.125 5.25C26.125 5.01794 26.2172 4.79538 26.3813 4.63128C26.5454 4.46719 26.7679 4.375 27 4.375C27.2321 4.375 27.4546 4.46719 27.6187 4.63128C27.7828 4.79538 27.875 5.01794 27.875 5.25C27.875 5.6273 27.7805 5.8135 27.4235 6.1824L27.329 6.279C26.7144 6.8936 26.475 7.2919 26.475 8.05C26.475 8.18924 26.5303 8.32277 26.6288 8.42123C26.7272 8.51969 26.8608 8.575 27 8.575C27.1392 8.575 27.2728 8.51969 27.3712 8.42123C27.4697 8.32277 27.525 8.18924 27.525 8.05C27.525 7.6727 27.6195 7.4865 27.9765 7.1176L28.071 7.021C28.6856 6.4064 28.925 6.0081 28.925 5.25C28.925 4.73946 28.7222 4.24983 28.3612 3.88882C28.0002 3.52781 27.5105 3.325 27 3.325Z" fill="white"/>
</svg>
