<svg width="12" height="14" viewBox="0 0 12 14" fill="none" xmlns="http://www.w3.org/2000/svg">
<path d="M10.6667 1.4H10V0H8.66667V1.4H3.33333V0H2V1.4H1.33333C0.593333 1.4 0.00666666 2.03 0.00666666 2.8L0 12.6C0 12.9713 0.140476 13.3274 0.390524 13.5899C0.640573 13.8525 0.979711 14 1.33333 14H10.6667C11.4 14 12 13.37 12 12.6V2.8C12 2.03 11.4 1.4 10.6667 1.4ZM10.6667 12.6H1.33333V5.6H10.6667V12.6ZM4 8.4H2.66667V7H4V8.4ZM6.66667 8.4H5.33333V7H6.66667V8.4ZM9.33333 8.4H8V7H9.33333V8.4ZM4 11.2H2.66667V9.8H4V11.2ZM6.66667 11.2H5.33333V9.8H6.66667V11.2ZM9.33333 11.2H8V9.8H9.33333V11.2Z" fill="white"/>
</svg>
