<svg width="22" height="22" viewBox="0 0 22 22" fill="none" xmlns="http://www.w3.org/2000/svg">
<circle cx="11" cy="11" r="11" fill="#8572FF"/>
<path d="M5 7H17V15H5V7ZM11 9C11.5304 9 12.0391 9.21071 12.4142 9.58579C12.7893 9.96086 13 10.4696 13 11C13 11.5304 12.7893 12.0391 12.4142 12.4142C12.0391 12.7893 11.5304 13 11 13C10.4696 13 9.96086 12.7893 9.58579 12.4142C9.21071 12.0391 9 11.5304 9 11C9 10.4696 9.21071 9.96086 9.58579 9.58579C9.96086 9.21071 10.4696 9 11 9V9ZM7.66667 8.33333C7.66667 8.68696 7.52619 9.02609 7.27614 9.27614C7.02609 9.52619 6.68696 9.66667 6.33333 9.66667V12.3333C6.68696 12.3333 7.02609 12.4738 7.27614 12.7239C7.52619 12.9739 7.66667 13.313 7.66667 13.6667H14.3333C14.3333 13.313 14.4738 12.9739 14.7239 12.7239C14.9739 12.4738 15.313 12.3333 15.6667 12.3333V9.66667C15.313 9.66667 14.9739 9.52619 14.7239 9.27614C14.4738 9.02609 14.3333 8.68696 14.3333 8.33333H7.66667Z" fill="white"/>
</svg>
