<svg width="30" height="26" viewBox="0 0 30 26" fill="none" xmlns="http://www.w3.org/2000/svg">
<path d="M27.2222 4H22.5L21.375 0.757143C21.2973 0.535243 21.1548 0.343435 20.9672 0.20792C20.7795 0.072405 20.5557 -0.000208078 20.3264 4.47867e-07H9.67361C9.20486 4.47867e-07 8.78472 0.303572 8.62847 0.757143L7.5 4H2.77778C1.24306 4 0 5.27857 0 6.85714V23.1429C0 24.7214 1.24306 26 2.77778 26H27.2222C28.7569 26 30 24.7214 30 23.1429V6.85714C30 5.27857 28.7569 4 27.2222 4ZM15 20.2857C11.9306 20.2857 9.44444 17.7286 9.44444 14.5714C9.44444 11.4143 11.9306 8.85714 15 8.85714C18.0694 8.85714 20.5556 11.4143 20.5556 14.5714C20.5556 17.7286 18.0694 20.2857 15 20.2857ZM11.6667 14.5714C11.6667 15.4807 12.0179 16.3528 12.643 16.9958C13.2681 17.6388 14.1159 18 15 18C15.8841 18 16.7319 17.6388 17.357 16.9958C17.9821 16.3528 18.3333 15.4807 18.3333 14.5714C18.3333 13.6621 17.9821 12.79 17.357 12.1471C16.7319 11.5041 15.8841 11.1429 15 11.1429C14.1159 11.1429 13.2681 11.5041 12.643 12.1471C12.0179 12.79 11.6667 13.6621 11.6667 14.5714Z" fill="#BC171D"/>
</svg>
