<svg width="22" height="22" viewBox="0 0 22 22" fill="none" xmlns="http://www.w3.org/2000/svg">
<circle cx="11" cy="11" r="11" fill="#8572FF"/>
<path d="M13.1818 8.81818H16.1818L13.1818 5.81818V8.81818ZM8.27273 5H13.7273L17 8.27273V13.7273C17 14.0166 16.8851 14.2941 16.6805 14.4987C16.4759 14.7032 16.1984 14.8182 15.9091 14.8182H8.27273C7.9834 14.8182 7.70592 14.7032 7.50134 14.4987C7.29675 14.2941 7.18182 14.0166 7.18182 13.7273V6.09091C7.18182 5.80158 7.29675 5.5241 7.50134 5.31952C7.70592 5.11493 7.9834 5 8.27273 5V5ZM6.09091 7.18182V15.9091H15.9091V17H6.09091C5.80158 17 5.52411 16.8851 5.31952 16.6805C5.11493 16.4759 5 16.1984 5 15.9091V7.18182H6.09091Z" fill="white"/>
</svg>
