<svg width="200" height="131" viewBox="0 0 200 131" fill="none" xmlns="http://www.w3.org/2000/svg">
<g clip-path="url(#clip0_198_2439)">
<g opacity="0.2">
<path d="M163.532 130.657C163.532 130.657 183.444 130.182 191.953 118.079C207.367 96.1523 200.42 76.9239 172.978 78.3552C142.278 79.9562 146.065 11.9869 92.9079 44.7114C81.3653 51.8175 55.6755 36.8941 45.4122 67.9862C42.9718 75.3795 24.6432 75.8946 12.7977 81.8237C-5.78327 91.1242 -0.535814 130.812 17.0177 130.968C34.5709 131.124 163.532 130.657 163.532 130.657Z" fill="#F86E42"/>
<path d="M70.2044 28.8074H69.2509V20.0729L68.9518 20.0463V16.5749L69.0381 16.2875L27.361 3.69647L9.96305 15.4687L10.1303 15.7176C9.56595 15.7176 9.10419 16.1807 9.10419 16.7466V22.7486C9.10419 23.3145 9.56595 23.7776 10.1303 23.7776H18.8508C19.4151 23.7776 19.8768 23.3145 19.8768 22.7486V20.348H25.6906V130.783H32.5301V20.3477H60.6646L68.5077 28.8074H66.8988C66.3348 28.8074 65.8727 29.2705 65.8727 29.8365V30.8655C65.8727 31.4312 66.3345 31.8943 66.8988 31.8943H70.2046C70.769 31.8943 71.2307 31.4312 71.2307 30.8655V29.8365C71.2301 29.2705 70.7687 28.8074 70.2044 28.8074ZM27.4602 4.35326L67.9143 16.5749H19.8612C19.7791 16.0901 19.3567 15.7176 18.8508 15.7176H10.6652L27.4602 4.35326ZM65.5548 20.3477L68.6524 20.6222V28.0824L61.4816 20.3477H65.5548Z" fill="#F1945F"/>
<path d="M133.971 7.70581H94.5006V130.885H133.971V7.70581Z" fill="#F27039"/>
<path opacity="0.5" d="M123.069 24.7018H94.5006V42.7475H123.069V24.7018Z" fill="#AED3FF"/>
<path opacity="0.5" d="M123.069 57.7463H94.5006V75.792H123.069V57.7463Z" fill="#AED3FF"/>
<path opacity="0.5" d="M123.069 90.364H94.5006V108.41H123.069V90.364Z" fill="#AED3FF"/>
<path d="M183.175 108.294H177.849V91.607H133.971V7.70581H123.069V130.954H133.971V130.885H177.849H183.175V108.294Z" fill="#E21B1B"/>
<path d="M82.3671 42.1656V41.5008H80.9163V37.1129H79.7156V41.5008H76.6736V37.1129H75.4729V41.5008H72.1659V37.1129H70.9649V41.5008H67.9232V37.1129H66.7225V41.5008H65.1315V42.1656H66.7225V44.3019H65.1315V44.9667H66.7225V47.1031H65.1315V47.7679H66.7225V49.9042H65.1315V50.569H66.7225V52.7054H65.1315V53.3702H66.7225V55.5065H65.1315V56.1713H66.7225V57.8997H65.1315V58.5645H66.7225V60.7009H65.1315V61.3657H66.7225V63.502H65.1315V64.1668H66.7225V66.3032H65.1315V66.968H66.7225V69.1043H65.1315V69.7691H66.7225V71.9058H65.1315V72.5706H66.7225V74.6095H65.1315V75.2743H66.7225V77.4107H65.1315V78.0755H66.7225V80.2121H65.1315V80.8769H66.7225V83.0133H65.1315V83.6781H66.7225V85.8147H65.1315V86.4795H66.7225V88.6159H65.1315V89.2806H66.7225V91.0093H65.1315V91.6741H66.7225V93.8105H65.1315V94.4753H66.7225V96.6119H65.1315V97.2767H66.7225V99.4131H65.1315V100.078H66.7225V102.215H65.1315V102.879H66.7225V105.016H65.1315V105.68H66.7225V107.587H65.1315V108.251H66.7225V110.388H65.1315V111.052H66.7225V113.189H65.1315V113.854H66.7225V115.99H65.1315V116.655H66.7225V118.791H65.1315V119.456H66.7225V121.593H65.1315V122.258H66.7225V123.986H65.1315V124.651H66.7225V126.788H65.1315V127.452H66.7225V129.589H65.1315V130.253H82.3674V129.589H80.9166V127.452H82.3674V126.788H80.9166V124.651H82.3674V123.986H80.9166V122.258H82.3674V121.593H80.9166V119.456H82.3674V118.791H80.9166V116.655H82.3674V115.99H80.9166V113.854H82.3674V113.189H80.9166V111.052H82.3674V110.388H80.9166V108.251H82.3674V107.587H80.9166V105.68H82.3674V105.016H80.9166V102.879H82.3674V102.215H80.9166V100.078H82.3674V99.4131H80.9166V97.2767H82.3674V96.6119H80.9166V94.4753H82.3674V93.8105H80.9166V91.6741H82.3674V91.0093H80.9166V89.2806H82.3674V88.6159H80.9166V86.4795H82.3674V85.8147H80.9166V83.6781H82.3674V83.0133H80.9166V80.8769H82.3674V80.2121H80.9166V78.0755H82.3674V77.4107H80.9166V75.2743H82.3674V74.6095H80.9166V72.5706H82.3674V71.9058H80.9166V69.7691H82.3674V69.1043H80.9166V66.968H82.3674V66.3032H80.9166V64.1668H82.3674V63.502H80.9166V61.3657H82.3674V60.7009H80.9166V58.5645H82.3674V57.8997H80.9166V56.1713H82.3674V55.5065H80.9166V53.3702H82.3674V52.7054H80.9166V50.569H82.3674V49.9042H80.9166V47.7679H82.3674V47.1031H80.9166V44.9667H82.3674V44.3019H80.9166V42.1656H82.3671V42.1656ZM75.4729 42.1656V44.3019H72.1659V42.1656H75.4729ZM72.1656 126.786V124.65H75.4726V126.786H72.1656ZM75.4729 127.451V129.588H72.1659V127.451H75.4729ZM72.1656 123.985V122.257H75.4726V123.985H72.1656ZM72.1656 121.592V119.455H75.4726V121.592H72.1656ZM72.1656 118.791V116.654H75.4726V118.791H72.1656ZM72.1656 115.989V113.853H75.4726V115.989H72.1656ZM72.1656 113.188V111.052H75.4726V113.188H72.1656ZM72.1656 110.387V108.25H75.4726V110.387H72.1656ZM72.1656 107.586V105.68H75.4726V107.586H72.1656ZM72.1656 105.015V102.879H75.4726V105.015H72.1656ZM72.1656 102.214V100.077H75.4726V102.214H72.1656ZM72.1656 99.4128V97.2764H75.4726V99.4128H72.1656ZM72.1656 96.6116V94.475H75.4726V96.6116H72.1656ZM72.1656 93.8102V91.6738H75.4726V93.8102H72.1656ZM72.1656 91.009V89.2804H75.4726V91.009H72.1656ZM72.1656 88.6159V86.4795H75.4726V88.6159H72.1656ZM72.1656 85.8147V83.6781H75.4726V85.8147H72.1656ZM72.1656 83.0133V80.8769H75.4726V83.0133H72.1656ZM72.1656 80.2124V78.0757H75.4726V80.2124H72.1656ZM72.1656 77.411V75.2746H75.4726V77.411H72.1656ZM72.1656 74.6098V72.5709H75.4726V74.6098H72.1656ZM72.1656 71.9061V69.7694H75.4726V71.9061H72.1656ZM72.1656 69.1049V66.9686H75.4726V69.1049H72.1656ZM72.1656 66.3038V64.1674H75.4726V66.3038H72.1656ZM72.1656 63.5026V61.3662H75.4726V63.5026H72.1656ZM72.1656 60.7015V58.5651H75.4726V60.7015H72.1656ZM72.1656 57.9V56.1716H75.4726V57.9H72.1656ZM72.1656 55.5068V53.3705H75.4726V55.5068H72.1656ZM72.1656 52.7057V50.5693H75.4726V52.7057H72.1656ZM72.1656 49.9045V47.7682H75.4726V49.9045H72.1656ZM72.1656 47.1031V44.9667H75.4726V47.1031H72.1656ZM67.9229 42.1656H70.9647V44.3019H67.9229V42.1656ZM67.9229 44.9667H70.9647V47.1031H67.9229V44.9667ZM67.9229 47.7682H70.9647V49.9045H67.9229V47.7682ZM67.9229 50.5693H70.9647V52.7057H67.9229V50.5693ZM67.9229 53.3705H70.9647V55.5068H67.9229V53.3705ZM67.9229 56.1716H70.9647V57.9H67.9229V56.1716ZM67.9229 58.5651H70.9647V60.7015H67.9229V58.5651ZM67.9229 61.3662H70.9647V63.5026H67.9229V61.3662ZM67.9229 64.1674H70.9647V66.3038H67.9229V64.1674ZM67.9229 66.9686H70.9647V69.1049H67.9229V66.9686ZM67.9229 69.7697H70.9647V71.9064H67.9229V69.7697ZM67.9229 72.5709H70.9647V74.6098H67.9229V72.5709ZM67.9229 75.2746H70.9647V77.411H67.9229V75.2746ZM67.9229 78.0757H70.9647V80.2124H67.9229V78.0757ZM67.9229 80.8772H70.9647V83.0135H67.9229V80.8772ZM67.9229 83.6781H70.9647V85.8147H67.9229V83.6781ZM67.9229 86.4795H70.9647V88.6159H67.9229V86.4795ZM67.9229 89.2806H70.9647V91.0093H67.9229V89.2806ZM67.9229 91.6741H70.9647V93.8105H67.9229V91.6741ZM67.9229 94.475H70.9647V96.6116H67.9229V94.475ZM67.9229 97.2764H70.9647V99.4128H67.9229V97.2764ZM67.9229 100.078H70.9647V102.214H67.9229V100.078ZM67.9229 102.879H70.9647V105.015H67.9229V102.879ZM67.9229 105.68H70.9647V107.586H67.9229V105.68ZM67.9229 108.25H70.9647V110.387H67.9229V108.25ZM67.9229 111.052H70.9647V113.188H67.9229V111.052ZM67.9229 113.853H70.9647V115.989H67.9229V113.853ZM67.9229 116.654H70.9647V118.791H67.9229V116.654ZM67.9229 119.455H70.9647V121.592H67.9229V119.455ZM67.9229 122.257H70.9647V123.985H67.9229V122.257ZM67.9229 124.65H70.9647V126.786H67.9229V124.65ZM67.9229 127.451H70.9647V129.588H67.9229V127.451ZM79.7154 129.588H76.6736V127.451H79.7154V129.588ZM79.7154 126.786H76.6736V124.65H79.7154V126.786ZM79.7154 123.985H76.6736V122.257H79.7154V123.985ZM79.7154 121.592H76.6736V119.455H79.7154V121.592ZM79.7154 118.791H76.6736V116.654H79.7154V118.791ZM79.7154 115.989H76.6736V113.853H79.7154V115.989ZM79.7154 113.188H76.6736V111.052H79.7154V113.188ZM79.7154 110.387H76.6736V108.25H79.7154V110.387ZM79.7154 107.586H76.6736V105.68H79.7154V107.586ZM79.7154 105.015H76.6736V102.879H79.7154V105.015ZM79.7154 102.214H76.6736V100.077H79.7154V102.214ZM79.7154 99.4128H76.6736V97.2764H79.7154V99.4128ZM79.7154 96.6116H76.6736V94.475H79.7154V96.6116ZM79.7154 93.8102H76.6736V91.6738H79.7154V93.8102ZM79.7154 91.009H76.6736V89.2804H79.7154V91.009ZM79.7154 88.6159H76.6736V86.4795H79.7154V88.6159ZM79.7154 85.8147H76.6736V83.6781H79.7154V85.8147ZM79.7154 83.0133H76.6736V80.8769H79.7154V83.0133ZM79.7154 80.2124H76.6736V78.0757H79.7154V80.2124ZM79.7154 77.411H76.6736V75.2746H79.7154V77.411ZM79.7154 74.6098H76.6736V72.5709H79.7154V74.6098ZM79.7154 71.9061H76.6736V69.7694H79.7154V71.9061ZM79.7154 69.1049H76.6736V66.9686H79.7154V69.1049ZM79.7154 66.3038H76.6736V64.1674H79.7154V66.3038ZM79.7154 63.5026H76.6736V61.3662H79.7154V63.5026ZM79.7154 60.7015H76.6736V58.5651H79.7154V60.7015ZM79.7154 57.9H76.6736V56.1716H79.7154V57.9ZM79.7154 55.5068H76.6736V53.3705H79.7154V55.5068ZM79.7154 52.7057H76.6736V50.5693H79.7154V52.7057ZM79.7154 49.9045H76.6736V47.7682H79.7154V49.9045ZM79.7154 47.1031H76.6736V44.9667H79.7154V47.1031ZM79.7154 44.3019H76.6736V42.1656H79.7154V44.3019Z" fill="#EB9768"/>
<path d="M96.9686 1.56873H96.5436V9.15484H96.9686V1.56873Z" fill="#F27039"/>
<path d="M120.511 1.56873H120.086V9.15484H120.511V1.56873Z" fill="#F27039"/>
<path d="M99.9432 1.56873H99.5182V9.15484H99.9432V1.56873Z" fill="#F27039"/>
<path d="M122.636 1.56873H122.211V9.15484H122.636V1.56873Z" fill="#F27039"/>
</g>
</g>
<defs>
<clipPath id="clip0_198_2439">
<rect width="200" height="131" fill="white"/>
</clipPath>
</defs>
</svg>
