<svg width="36" height="36" viewBox="0 0 36 36" fill="none" xmlns="http://www.w3.org/2000/svg">
<circle cx="18" cy="18" r="17.5" stroke="#ACACAC" stroke-dasharray="5 5"/>
<path d="M27 17.35L23.1667 14.2667V12.1667C23.1871 11.7458 23.0398 11.334 22.757 11.0216C22.4743 10.7091 22.0792 10.5216 21.6583 10.5H12.1583C11.7405 10.5258 11.3496 10.7152 11.0704 11.0272C10.7912 11.3391 10.6462 11.7485 10.6667 12.1667V20.5C10.6589 20.8309 10.7499 21.1567 10.928 21.4357C11.1061 21.7147 11.3633 21.9344 11.6667 22.0667C11.5132 22.4421 11.4534 22.8493 11.4924 23.253C11.5314 23.6567 11.6681 24.0449 11.8906 24.3841C12.1131 24.7232 12.4148 25.0031 12.7696 25.1996C13.1244 25.3961 13.5217 25.5033 13.9273 25.512C14.3328 25.5207 14.7343 25.4306 15.0972 25.2495C15.4602 25.0683 15.7736 24.8016 16.0104 24.4723C16.2472 24.143 16.4004 23.7611 16.4566 23.3594C16.5129 22.9577 16.4706 22.5484 16.3333 22.1667H21.6333C21.4963 22.5443 21.4523 22.9494 21.505 23.3476C21.5577 23.7458 21.7056 24.1255 21.9361 24.4545C22.1667 24.7834 22.4731 25.052 22.8295 25.2374C23.1858 25.4228 23.5816 25.5196 23.9833 25.5196C24.3851 25.5196 24.7809 25.4228 25.1372 25.2374C25.4936 25.052 25.8 24.7834 26.0306 24.4545C26.2611 24.1255 26.409 23.7458 26.4617 23.3476C26.5144 22.9494 26.4704 22.5443 26.3333 22.1667H26.5C26.721 22.1667 26.933 22.0789 27.0893 21.9226C27.2456 21.7663 27.3333 21.5543 27.3333 21.3333V18C27.3308 17.8735 27.2995 17.7492 27.2417 17.6365C27.1839 17.5239 27.1013 17.4259 27 17.35V17.35ZM25.6667 18.4V20.5H23.1667V16.4L25.6667 18.4ZM14.8333 23C14.8333 23.1648 14.7845 23.3259 14.6929 23.463C14.6013 23.6 14.4712 23.7068 14.3189 23.7699C14.1666 23.833 13.9991 23.8495 13.8374 23.8173C13.6758 23.7852 13.5273 23.7058 13.4108 23.5893C13.2942 23.4727 13.2148 23.3242 13.1827 23.1626C13.1505 23.0009 13.167 22.8334 13.2301 22.6811C13.2932 22.5288 13.4 22.3987 13.537 22.3071C13.6741 22.2155 13.8352 22.1667 14 22.1667C14.221 22.1667 14.433 22.2545 14.5893 22.4107C14.7455 22.567 14.8333 22.779 14.8333 23ZM24.8333 23C24.8333 23.1648 24.7845 23.3259 24.6929 23.463C24.6013 23.6 24.4712 23.7068 24.3189 23.7699C24.1666 23.833 23.9991 23.8495 23.8374 23.8173C23.6758 23.7852 23.5273 23.7058 23.4108 23.5893C23.2942 23.4727 23.2148 23.3242 23.1827 23.1626C23.1505 23.0009 23.167 22.8334 23.2301 22.6811C23.2932 22.5288 23.4 22.3987 23.537 22.3071C23.6741 22.2155 23.8352 22.1667 24 22.1667C24.221 22.1667 24.433 22.2545 24.5893 22.4107C24.7456 22.567 24.8333 22.779 24.8333 23Z" fill="#F7878B"/>
</svg>
