<svg width="75" height="70" viewBox="0 0 75 70" fill="none" xmlns="http://www.w3.org/2000/svg">
<rect width="75" height="70" rx="6" fill="#EDEDED"/>
<path d="M38 42.75L46.625 34.125L58.125 45.625V57.125H17.875V48.5M43.75 48.5L32.25 37L17.875 51.375V16.875H58.125V48.5H43.75Z" stroke="#838383" stroke-width="2" stroke-linecap="round" stroke-linejoin="round"/>
<path d="M29.375 31.25C31.7567 31.25 33.6875 29.3192 33.6875 26.9375C33.6875 24.5558 31.7567 22.625 29.375 22.625C26.9933 22.625 25.0625 24.5558 25.0625 26.9375C25.0625 29.3192 26.9933 31.25 29.375 31.25Z" stroke="#838383" stroke-width="2" stroke-linecap="round" stroke-linejoin="round"/>
<circle cx="18" cy="17" r="7" fill="white"/>
<path d="M18 10C16.1504 10.0223 14.3829 10.767 13.0749 12.0749C11.767 13.3829 11.0223 15.1504 11 17C11.0223 18.8496 11.767 20.6171 13.0749 21.9251C14.3829 23.233 16.1504 23.9777 18 24C19.8496 23.9777 21.6171 23.233 22.9251 21.9251C24.233 20.6171 24.9777 18.8496 25 17C24.9777 15.1504 24.233 13.3829 22.9251 12.0749C21.6171 10.767 19.8496 10.0223 18 10V10ZM22 17.5H18.5V21H17.5V17.5H14V16.5H17.5V13H18.5V16.5H22V17.5Z" fill="#FE7413"/>
</svg>
